<svg width="30" height="30" viewBox="0 0 30 30" fill="none" xmlns="http://www.w3.org/2000/svg">
<mask id="path-1-inside-1" fill="white">
<path d="M16.4344 0.524329C16.4591 0.275124 16.6813 0.0924174 16.9296 0.124631C19.5461 0.464017 22.0297 1.48804 24.1276 3.09674C26.3456 4.79753 28.0442 7.08418 29.032 9.69884C30.0198 12.3135 30.2574 15.1521 29.7181 17.8946C29.1787 20.6371 27.8838 23.1743 25.9794 25.2202C24.0751 27.266 21.637 28.7391 18.9401 29.4733C16.2432 30.2075 13.3948 30.1735 10.7162 29.3753C8.03761 28.5771 5.6353 27.0463 3.7802 24.9557C2.02554 22.9783 0.826473 20.5743 0.300783 17.9888C0.250886 17.7434 0.41723 17.5087 0.66403 17.4663C0.91083 17.4238 1.14458 17.5897 1.19496 17.835C1.69169 20.2539 2.81602 22.5027 4.45853 24.3538C6.20147 26.318 8.45855 27.7562 10.9752 28.5062C13.4919 29.2562 16.168 29.288 18.7019 28.5983C21.2357 27.9085 23.5264 26.5244 25.3156 24.6023C27.1049 22.6801 28.3215 20.2963 28.8282 17.7196C29.335 15.1429 29.1117 12.4759 28.1837 10.0193C27.2556 7.56276 25.6596 5.41435 23.5757 3.81639C21.6119 2.31051 19.2884 1.34993 16.8401 1.02752C16.5919 0.994822 16.4097 0.773534 16.4344 0.524329Z"/>
</mask>
<path d="M16.4344 0.524329C16.4591 0.275124 16.6813 0.0924174 16.9296 0.124631C19.5461 0.464017 22.0297 1.48804 24.1276 3.09674C26.3456 4.79753 28.0442 7.08418 29.032 9.69884C30.0198 12.3135 30.2574 15.1521 29.7181 17.8946C29.1787 20.6371 27.8838 23.1743 25.9794 25.2202C24.0751 27.266 21.637 28.7391 18.9401 29.4733C16.2432 30.2075 13.3948 30.1735 10.7162 29.3753C8.03761 28.5771 5.6353 27.0463 3.7802 24.9557C2.02554 22.9783 0.826473 20.5743 0.300783 17.9888C0.250886 17.7434 0.41723 17.5087 0.66403 17.4663C0.91083 17.4238 1.14458 17.5897 1.19496 17.835C1.69169 20.2539 2.81602 22.5027 4.45853 24.3538C6.20147 26.318 8.45855 27.7562 10.9752 28.5062C13.4919 29.2562 16.168 29.288 18.7019 28.5983C21.2357 27.9085 23.5264 26.5244 25.3156 24.6023C27.1049 22.6801 28.3215 20.2963 28.8282 17.7196C29.335 15.1429 29.1117 12.4759 28.1837 10.0193C27.2556 7.56276 25.6596 5.41435 23.5757 3.81639C21.6119 2.31051 19.2884 1.34993 16.8401 1.02752C16.5919 0.994822 16.4097 0.773534 16.4344 0.524329Z" stroke="#333333" stroke-width="2" stroke-linecap="round" mask="url(#path-1-inside-1)"/>
</svg>
