<svg width="78" height="76" viewBox="0 0 78 76" fill="none" xmlns="http://www.w3.org/2000/svg">
<path d="M73.7 38L39 3.29997C36.6 0.89997 33.2 -0.30003 29.9 0.0999701L12.8 1.69997C7.40002 2.29997 3.10002 6.49997 2.60002 11.9L0.900019 28.9C0.500019 32.3 1.70002 35.6 4.10002 38L39 72.7C41.1 74.8 44 76 47.1 76C50.2 76 53 74.8 55.2 72.7L73.8 54C75.9 51.9 77.1 49 77.1 45.9C77 43 75.8 40.1 73.7 38ZM71.2 46.1C71.2 47.6 70.6 49 69.6 50L51 68.6C50 69.6 48.6 70.3 47.1 70.3C45.6 70.3 44.2 69.7 43.2 68.6L8.40002 33.9C7.40002 32.9 6.80002 31.5 6.70002 30C6.70002 29.8 6.70002 29.6 6.70002 29.4L8.40002 12.4C8.70002 9.79997 10.7 7.69997 13.4 7.39997L30.4 5.69997C30.6 5.69997 30.8 5.69997 31 5.69997C32.5 5.69997 33.9 6.29997 34.9 7.29997L69.7 42C70.6 43.2 71.2 44.6 71.2 46.1Z" fill="white"/>
<path d="M26.0999 15.3C20.6999 15.3 16.3999 19.7001 16.3999 24.9001C16.3999 27.5001 17.3999 29.9 19.1999 31.8C21.0999 33.7 23.4999 34.7001 26.0999 34.7001C28.6999 34.7001 31.0999 33.7001 32.9999 31.9001C34.8999 30.0001 35.8999 27.6 35.8999 25C35.8999 22.4 34.8999 19.9 32.9999 18.1C31.0999 16.3001 28.6999 15.4 26.0999 15.3ZM29.8999 25C29.8999 26 29.4999 27 28.7999 27.8C28.0999 28.5 27.0999 28.9001 25.9999 28.9001C23.8999 28.9001 22.0999 27.1 22.0999 25C22.0999 24 22.4999 23.0001 23.1999 22.2001C23.8999 21.5001 24.9999 21.1 25.8999 21.1C26.8999 21.1 27.7999 21.5001 28.6999 22.2001C29.4999 23.1001 29.8999 24 29.8999 25Z" fill="white"/>
</svg>
