<?xml version="1.0" encoding="utf-8"?>
<!-- Generator: Adobe Illustrator 19.2.1, SVG Export Plug-In . SVG Version: 6.00 Build 0)  -->
<svg version="1.1" id="Capa_1" xmlns="http://www.w3.org/2000/svg" xmlns:xlink="http://www.w3.org/1999/xlink" x="0px" y="0px"
	 viewBox="0 0 363 363" style="enable-background:new 0 0 363 363;" xml:space="preserve">
<style type="text/css">
	.st0{fill:#FFFFFF;}
</style>
<path class="st0" d="M152.9,84.5c0,16.7-12.1,26.8-21,34.2c-3.4,2.8-9.6,8-9.6,9.9c0.1,7.5-6,13.5-13.5,13.5h0
	c-7.5,0-13.7-6-13.7-13.5c0-14.6,10.7-23.4,19.3-30.7c6.8-5.7,11.2-9.7,11.2-13.4c0-8.7-8.3-15.6-17.5-12.9
	c-5.7,1.7-9.4,7.1-9.5,13.1c-0.1,8.9-8.8,15.8-18.2,12.7c-5.5-1.8-9-7.2-9-12.9c0-22.4,18.3-40.7,40.7-40.7
	C134.6,43.8,152.9,62,152.9,84.5z M95.8,168.3L95.8,168.3c0,6.3,4.2,12,10.4,13.3c8.8,1.9,16.6-4.9,16.6-13.4
	c0-8.1-7.1-14.6-15.5-13.5C100.6,155.7,95.8,161.6,95.8,168.3z M306.7,196.2c-9.2,0-16.5,7.7-16,17c0.5,8.6,8,15,16.6,15h0.1
	c8.6,0,16.1-6.5,16.6-15c0.6-9.3-6.8-17-16-17H306.7z M251.1,196.2c-9.2,0-16.5,7.7-16,17c0.5,8.6,8,15,16.6,15h0.1
	c8.6,0,16.1-6.5,16.6-15c0.6-9.3-6.8-17-16-17H251.1z M225,16.2v104h137.5c0.3,0,0.5,0.2,0.5,0.5v187.1c0,0.3-0.2,0.5-0.5,0.5H192.4
	L138,357.7c0-12.6,0-125.7,0-125.7c0-5.2,4.3-9.3,9.6-9c4.8,0.3,9.4,4.5,9.4,9.3v85.2l25.9-25.8c1.7-1.5,3.8-2.5,6-2.5H344v-150H225
	v119.1l-48.4-48.1c-0.9-0.8-1.7-1.5-2.4-2.1c-1.8-1.6-3.6-3.3-4.4-3.8c-0.7-0.1-2.6-0.1-4.2,0c-1.6,0-3.5,0-5.7,0H0.2
	c-0.1,0-0.2-0.1-0.2-0.2L0,16.2H225z M19,185.2h140.9c2.1,0,3.9,0,5.4,0c10.8-0.2,12.9,2,21.2,9.6c0.7,0.6,1.6,1.3,2.5,2.1
	l17.1,16.4v-83.9l1-94.1H19V185.2z"/>
</svg>
