<svg xmlns="http://www.w3.org/2000/svg" viewBox="0 0 30 30"><defs><style>.a{fill:#64a8eb;}</style></defs><title>icon</title><path class="a" d="M3.22,29.47A2,2,0,0,1,1.92,29a1.93,1.93,0,0,1-.67-1.74L2.4,18.94a1.89,1.89,0,0,1,.48-1L18.07,1.17A2,2,0,0,1,19.42.53,2,2,0,0,1,20.83,1l7.24,6.14a1.93,1.93,0,0,1,.69,1.35,1.9,1.9,0,0,1-.49,1.41L13.08,26.64a2,2,0,0,1-1,.58l-8.4,2.19a2.07,2.07,0,0,1-.39.06H3.22ZM19.54,2.53L4.36,19.25,3.23,27.54l8.38-2.25L26.73,8.62Z"/><path class="a" d="M12.34,26.47A0.5,0.5,0,0,1,12,26.35L3.3,19a0.5,0.5,0,1,1,.65-0.76l8.72,7.38A0.5,0.5,0,0,1,12.34,26.47Z"/><path class="a" d="M16.72,13a0.5,0.5,0,0,1-.37-0.84L23,4.93a0.5,0.5,0,0,1,.74.67l-6.6,7.28A0.5,0.5,0,0,1,16.72,13Z"/></svg>