<svg viewBox="0 0 30 30" xmlns="http://www.w3.org/2000/svg"><path d="m3.22 29.47a2 2 0 0 1-1.3-.47 1.93 1.93 0 0 1-.67-1.74l1.15-8.32a1.89 1.89 0 0 1  .48-1l15.19-16.77a2 2 0 0 1 1.35-.64 2 2 0 0 1  1.41.47l7.24 6.14a1.93 1.93 0 0 1  .69 1.35 1.9 1.9 0 0 1-.49 1.41l-15.19 16.74a2 2 0 0 1-1 .58l-8.4 2.19a2.07 2.07 0 0 1-.39.06zm16.32-26.94l-15.18 16.72-1.13 8.29 8.38-2.25 15.12-16.67z" fill="#fff"/><path d="m12.34 26.47a.5.5 0 0 1-.34-.12l-8.7-7.35a.5.5 0 1 1  .65-.76l8.72 7.38a.5.5 0 0 1-.33.85z" fill="#fff"/><path d="m16.72 13a .5.5 0 0 1-.37-.84l6.65-7.23a.5.5 0 0 1  .74.67l-6.6 7.28a.5.5 0 0 1-.42.12z" fill="#fff"/></svg>