<svg id="Capa_1" data-name="Capa 1" xmlns="http://www.w3.org/2000/svg" viewBox="0 0 512 448"><defs><style>.cls-1{fill:#fff;}</style></defs><title>gallereya</title><path class="cls-1" d="M373.34,32H10.67A10.67,10.67,0,0,0,0,42.67v320a10.66,10.66,0,0,0,10.66,10.66H373.34A10.67,10.67,0,0,0,384,362.67v-320A10.67,10.67,0,0,0,373.34,32ZM362.67,352H21.34V53.34H362.67Z" transform="translate(0 -32)"/><path class="cls-1" d="M382.87,357.89,265.54,123.22a10.68,10.68,0,0,0-9.26-5.89,10.43,10.43,0,0,0-9.56,5.38L168.33,259.93,114.2,205.8a10.65,10.65,0,0,0-16.51,1.77l-96,149.34a10.67,10.67,0,0,0,17.94,11.54l88.83-138.22,54.66,54.65a10.67,10.67,0,0,0,16.81-2.26l75.46-132L363.78,367.44a10.66,10.66,0,0,0,9.56,5.89,10.4,10.4,0,0,0,4.75-1.13A10.66,10.66,0,0,0,382.87,357.89Z" transform="translate(0 -32)"/><path class="cls-1" d="M117.34,74.67A53.33,53.33,0,1,0,170.67,128,53.4,53.4,0,0,0,117.34,74.67Zm0,85.33a32,32,0,1,1,32-32A32,32,0,0,1,117.34,160Z" transform="translate(0 -32)"/><path class="cls-1" d="M507.24,204.46l-128-85.33a10.66,10.66,0,1,0-11.82,17.75l119.63,79.76-139,238.29L165.19,353.34A10.67,10.67,0,1,0,154.82,372l192,106.66A10.45,10.45,0,0,0,352,480a10.68,10.68,0,0,0,9.24-5.29l149.33-256A10.66,10.66,0,0,0,507.24,204.46Z" transform="translate(0 -32)"/></svg>