<?xml version="1.0" encoding="utf-8"?>
<!-- Generator: Adobe Illustrator 21.0.2, SVG Export Plug-In . SVG Version: 6.00 Build 0)  -->
<svg version="1.1" id="Слой_1" xmlns="http://www.w3.org/2000/svg" xmlns:xlink="http://www.w3.org/1999/xlink" x="0px" y="0px"
	 viewBox="0 0 190 224" style="enable-background:new 0 0 190 224;" xml:space="preserve">
<style type="text/css">
	.st0{fill:#FFFFFF;}
</style>
<title>icon_quiz</title>
<g id="Слой_2">
	<g id="Capa_1">
		<path class="st0" d="M5,154.1h50c2.8,0,5-2.2,5-5v-50c0-2.8-2.2-5-5-5H5c-2.8,0-5,2.2-5,5v50C0,151.8,2.2,154.1,5,154.1z
			 M10,104.1h40v40H10V104.1z"/>
		<path class="st0" d="M5,224h50c2.8,0,5-2.2,5-5v-50c0-2.8-2.2-5-5-5H5c-2.8,0-5,2.2-5,5v50C0,221.8,2.2,224,5,224z M10,174h40v40
			H10V174z"/>
		<path class="st0" d="M5,84h50c2.8,0,5-2.2,5-5V39.6l-10,15V74H10V34h37.7L33.6,55.1l-6.1-12.3c-1.2-2.5-4.2-3.5-6.7-2.3
			s-3.5,4.2-2.3,6.7l0,0.1l10,20c1.2,2.5,4.2,3.5,6.7,2.2c0.8-0.4,1.4-1,1.9-1.7l40-60c1.5-2.3,0.9-5.4-1.4-6.9
			c-2.3-1.5-5.4-0.9-6.9,1.4L54.3,24H5c-2.8,0-5,2.2-5,5v50C0,81.8,2.2,84,5,84z"/>
		<path class="st0" d="M95,44h90c2.8,0,5,2.2,5,5v10c0,2.8-2.2,5-5,5H95c-2.8,0-5-2.2-5-5V49C90,46.3,92.2,44,95,44z"/>
		<path class="st0" d="M95,114h90c2.8,0,5,2.2,5,5v10c0,2.8-2.2,5-5,5H95c-2.8,0-5-2.2-5-5v-10C90,116.3,92.2,114,95,114z"/>
		<path class="st0" d="M95,184.1h90c2.8,0,5,2.2,5,5v10c0,2.8-2.2,5-5,5H95c-2.8,0-5-2.2-5-5v-10C90,186.3,92.2,184.1,95,184.1z"/>
	</g>
</g>
</svg>
