<?xml version="1.0" encoding="utf-8"?>
<!-- Generator: Adobe Illustrator 18.1.1, SVG Export Plug-In . SVG Version: 6.00 Build 0)  -->
<svg version="1.1" id="Слой_1" xmlns="http://www.w3.org/2000/svg" xmlns:xlink="http://www.w3.org/1999/xlink" x="0px" y="0px"
	 viewBox="0 0 24.9 29.5" enable-background="new 0 0 24.9 29.5" xml:space="preserve">
<path fill="#40AFDF" d="M24.4,9.4h-2.6V7.5l0,0V1.4c0-0.5-0.4-0.9-0.9-0.9H1.4c-0.5,0-0.9,0.4-0.9,0.9v26.7c0,0.5,0.4,0.9,0.9,0.9
	h14.4c0.2,0,0.5-0.1,0.6-0.2l5-4.5c0.2-0.2,0.3-0.4,0.3-0.7v-1.7v-4.2v-0.8h2.6V9.4z"/>
<g>
	<g>
		<path fill="#FFFFFF" d="M8.6,17.2v-8h16v8H8.6z M15.8,15.3c0.2,0,0.3,0,0.5,0c0.9,0,1.6-0.2,2-0.6c0.4-0.4,0.6-0.9,0.7-1.6
			C18.5,13.3,17.1,14.3,15.8,15.3z M20.7,15.3v-2h1.8V13h-1.8v-1.8h1.9V11h-2.3v4.3H20.7z"/>
		<path fill="#36AAD3" d="M24.4,9.4v7.5H8.9V9.4H24.4 M20,15.6h0.9v-2h1.8v-0.7h-1.8v-1.3h1.9v-0.7H20V15.6 M13.8,11.1
			c0,0.2,0.4,1.1,0.5,1.1C14.3,12.2,13.8,11.3,13.8,11.1C13.8,11.1,13.9,11.1,13.8,11.1C13.9,11.1,13.8,11.1,13.8,11.1 M16.3,15.6
			c0.9,0,1.7-0.2,2.2-0.7c0.5-0.4,0.7-1,0.7-1.9c0-0.1,0-0.1-0.1-0.1c-0.7,0-4,2.6-4,2.6C15.4,15.6,15.8,15.6,16.3,15.6 M24.9,8.9
			h-0.5H8.9H8.4v0.5v7.5v0.5h0.5h15.5h0.5v-0.5V9.4V8.9L24.9,8.9z M16.5,15.1c0.8-0.6,1.7-1.2,2.2-1.5c-0.1,0.4-0.3,0.7-0.5,1
			C17.8,14.9,17.3,15.1,16.5,15.1L16.5,15.1z"/>
	</g>
	<g>
		<path fill="#FFFFFF" d="M1.4,29.3c-0.7,0-1.2-0.5-1.2-1.2V1.4c0-0.7,0.5-1.2,1.2-1.2h19.4c0.7,0,1.2,0.5,1.2,1.2v7.3h-2.4V2.6h-17
			v24.3h12.6v-4.1h4.4l0-5.4H22v6.1c0,0.3-0.1,0.7-0.4,0.9l-5,4.5c-0.2,0.2-0.5,0.3-0.8,0.3H1.4z"/>
		<path fill="#36AAD3" d="M20.8,0.5c0.5,0,0.9,0.4,0.9,0.9v7h-1.9V2.4H2.4v24.8h13.1l0.1-0.1v-4h4.4h0v-5.4h1.9v5.9
			c0,0.3-0.1,0.5-0.3,0.7l-5,4.5C16.3,29,16,29,15.8,29H1.4c-0.5,0-0.9-0.4-0.9-0.9V1.4c0-0.5,0.4-0.9,0.9-0.9H20.8 M20.8,0H1.4
			C0.6,0,0,0.6,0,1.4v26.7c0,0.8,0.6,1.4,1.4,1.4h14.4c0.4,0,0.7-0.1,1-0.4l5-4.5c0.3-0.3,0.5-0.7,0.5-1.1v-5.9v-0.5h-0.5h-1.9h-0.5
			v0.5v4.9h-3.9H15v0.5v3.6H2.9V2.9h16.5v5.6V9h0.5h1.9h0.5V8.5v-7C22.2,0.6,21.6,0,20.8,0L20.8,0z"/>
	</g>
</g>
<path fill="#FFFFFF" d="M9.8,9.9c0,0.1,0,6.7,0,6.6s13.9,0.1,14,0.1s0-6.8,0-6.8L9.8,9.9z"/>
<text transform="matrix(1 0 0 1 9.7791 15.5337)" fill="#33A9D2" font-family="'Arial-BoldMT'" font-size="6.5273">JPG </text>
</svg>
