<svg xmlns="http://www.w3.org/2000/svg" viewBox="0 0 30 30"><defs><style>.a{fill:#90919c;}</style></defs><title>icon</title><path class="a" d="M24.88,7.82a4.78,4.78,0,0,0-6.75,0L16.43,9.52a5.76,5.76,0,0,1,.77.64,5.44,5.44,0,0,1,.63.78l1.71-1.71a2.78,2.78,0,0,1,3.92,0c1,1,.43,3.49-0.71,4.63l-3.92,3.92a2.77,2.77,0,0,1-4-3.82,1.7,1.7,0,0,0-.47-1,1.76,1.76,0,0,0-.92-0.49,4.77,4.77,0,0,0,6.8,6.68l3.92-3.92C26,13.42,26.75,9.69,24.88,7.82Z"/><path class="a" d="M12.8,19.9a5.56,5.56,0,0,1-.64-0.78l-1.71,1.71a2.77,2.77,0,1,1-3.92-3.92l4.62-4.62a2.77,2.77,0,0,1,4,3.83,1.73,1.73,0,0,0,.48,1,1.76,1.76,0,0,0,.92.49,4.77,4.77,0,0,0-6.8-6.68L5.12,15.5a4.77,4.77,0,0,0,6.75,6.75l1.71-1.71A5.76,5.76,0,0,1,12.8,19.9Z"/></svg>