<?xml version="1.0" encoding="utf-8"?>
<!-- Generator: Adobe Illustrator 18.0.0, SVG Export Plug-In . SVG Version: 6.00 Build 0)  -->
<!DOCTYPE svg PUBLIC "-//W3C//DTD SVG 1.1//EN" "http://www.w3.org/Graphics/SVG/1.1/DTD/svg11.dtd">
<svg version="1.1" id="Слой_1" xmlns="http://www.w3.org/2000/svg" xmlns:xlink="http://www.w3.org/1999/xlink" x="0px" y="0px"
	 viewBox="0 0 126 168.4" enable-background="new 0 0 126 168.4" xml:space="preserve">
<g>
	<linearGradient id="SVGID_1_" gradientUnits="userSpaceOnUse" x1="77.124" y1="119.5563" x2="-2.7087" y2="39.7237">
		<stop  offset="6.576258e-002" style="stop-color:#495166;stop-opacity:0"/>
		<stop  offset="1" style="stop-color:#495166"/>
	</linearGradient>
	<polygon fill="url(#SVGID_1_)" points="4,136.2 36.1,168.4 126,78.6 74.9,27.5 34,34.2 34,129.2 	"/>
	<linearGradient id="SVGID_2_" gradientUnits="userSpaceOnUse" x1="33.7251" y1="87.8209" x2="-3.9495" y2="50.1464">
		<stop  offset="0" style="stop-color:#495166;stop-opacity:0"/>
		<stop  offset="1" style="stop-color:#495166"/>
	</linearGradient>
	<polygon fill="url(#SVGID_2_)" points="33.6,69.1 8.6,81.4 40.8,113.6 	"/>
	<linearGradient id="SVGID_3_" gradientUnits="userSpaceOnUse" x1="42.0902" y1="23.7151" x2="27.086" y2="8.711">
		<stop  offset="6.576258e-002" style="stop-color:#495166;stop-opacity:0"/>
		<stop  offset="1" style="stop-color:#495166"/>
	</linearGradient>
	<polygon fill="url(#SVGID_3_)" points="20.3,19.3 35.6,34.6 53,17.2 37.2,1.4 38.7,4.1 38.8,7.1 37.8,11.2 34.7,15.3 29.1,16.6 
		21.5,16.2 	"/>
	<g>
		<path fill="#5E6678" d="M73.1,81.8c5.9-13.4,10.6-20.2,8.8-40.1c-1.2-13.8-13.5-20-20.1-20c-5.6,0-9.5,3.5-9.5,3.5
			s-4.4,4.6-5.2,3.8c-4.3-3.7-10.5-9.7-19.8-9.7c-9.2,0-13.6,7.9-13.6,7.9S7.2,28.7,3,34.1c-2.1,2.8-1.3,7.5-1,9.4
			c0.2,2,1.5,2.4,1.5,3.8c0,1.3-0.5,3.2-0.6,5c-0.1,1.7,1.3,1.8,2.1,6.1c-0.6,0.3-1.8,0.3-3.5-0.6c0.7,1,2.6,1.3,3.3,1.3
			c0.2,0,0.3,0.1,0.4,0.3c0,0,0,0,0,0C6,64.8,0,67.1,0,68.3c0,1.2,3.2,1.5,4,1.9c0.8,0.4,0.5,1,0.3,1.5c-0.2,0.5-0.2,1,0.2,1.2
			C4.9,73.1,6,73.7,6,74c0,1-0.2,1.3,1.2,2.1c1.4,0.8,1.1,1,1.1,1.8c-0.1,4.2,1.5,4.4,1.5,4.4c3.8,0.4,13.3-6.3,13.3-6.3
			c3.5,3.2,9.2,12.2,8.3,22.5c-0.7,7.9-20.9,26.5-28.2,36.2c-0.5,0.7,0,1.6,0.8,1.6h50.6c0.6,0,1-0.4,1.1-1c0.7-7.8,1.4-29-9.5-46.6
			c-4-6.5-7.5-14.4-6.6-14.4s5.5,1.3,9.3-6.5c3.8-7.8,3.8-21.6,2.2-26.9s-1.9-7-0.9-7c6.9,0,8.8,11.8,3.9,23.9s-4.8,18.4-3.5,24.5
			c3.6,17.4,15.9,22.4,18.9,24c2.9,1.6,12,4.8,11.2,3.5C80,108.6,66.7,96.3,73.1,81.8z"/>
		<path fill="#5E6678" d="M20.3,19.3c1.8-1,4.1-1.7,6.8-1.7c2.8,0,5.3,0.6,7.5,1.4c0.5-1.1,0.7-1.8,1.2-2.9
			c4.2-5.5,4.5-10.3,3.3-12.7c-0.6-1.3-1.6-2.1-2.8-2.1c-1.4,0-2.3,0.5-2.8,1C32.6,0.9,31.4,0,30.3,0c-1.4,0-2.3,0.5-2.9,1
			c-0.5-0.5-1.5-1-2.9-1c-1.1,0-2.3,0.9-3.2,2.3c-0.5-0.5-1.5-1-2.8-1c-1.1,0-2.2,0.8-2.8,2.1c-1.1,2.4-0.9,7.1,3.1,12.5
			C19.4,17.2,19.7,17.9,20.3,19.3z M34.2,3.6c0.3-0.3,0.9-0.9,2.2-0.9c0.6,0,1.2,0.5,1.5,1.3c1,2.1,0.7,6.3-3.2,11.4
			c0,0-0.1,0-0.1,0l-0.7-2.6C35.8,8.4,34.8,5,34.2,3.6z M28.1,2.4c0.2-0.3,0.9-1,2.2-1c0.7,0,1.8,0.9,2.5,2.5
			c0.5,1.1,1.6,4.2-0.1,8.3l-2.5,1.7l-2.2-3V2.4z M22,3.9c0.8-1.7,1.9-2.5,2.5-2.5c1.2,0,1.9,0.6,2.1,0.9v8.6l-2.1,3l-2.4-1.6
			C20.4,8.1,21.5,4.9,22,3.9z M17,4c0.4-0.8,1-1.3,1.5-1.3c1.3,0,1.9,0.6,2.2,0.9c-0.6,1.4-1.6,4.8,0.2,9.1l-0.7,2.6c0,0,0,0-0.1,0
			C16.3,10.3,16,6.1,17,4z"/>
	</g>
</g>
</svg>
