<svg xmlns="http://www.w3.org/2000/svg" viewBox="0 0 18.95 9.61"><defs><style>.cls-1{fill:#fff;}</style></defs><title>Ресурс 1</title><g id="Слой_2" data-name="Слой 2"><g id="Слой_2_копия_" data-name="Слой 2 (копия)"><path class="cls-1" d="M18.62,9.6h.18l0,0h0l0,0V9.24a.41.41,0,0,0,0,0V.41A.41.41,0,0,0,18.54,0H5.31l0,0h0v0h0V.4h0V2.95a.41.41,0,0,0,.82,0V1.32L9.66,4.56l-.05,0L6,8.2V5.5a.41.41,0,0,0-.82,0V6H3.06a.41.41,0,1,0,0,.82H5.18V9.19a.41.41,0,0,0,.41.41h13Zm-.49-1.4-3.6-3.6h0l2.71-2.3a.41.41,0,1,0-.53-.63L12.07,5.6,6.68.82H18.13V8.2Zm-7.94-3a.41.41,0,0,0,.07-.1l1.54,1.36a.41.41,0,0,0,.54,0L13.9,5.13l0,.06,3.6,3.6h-11Z"/><path class="cls-1" d="M.41,4.68H7.35a.41.41,0,0,0,0-.82H.41a.41.41,0,0,0,0,.82Z"/><path class="cls-1" d="M1.13,2.42H4.25a.41.41,0,0,0,0-.82H1.13a.41.41,0,0,0,0,.82Z"/><path class="cls-1" d="M3.42,7.74h-3a.41.41,0,0,0,0,.82h3a.41.41,0,1,0,0-.82Z"/></g></g></svg>