<svg xmlns="http://www.w3.org/2000/svg" xmlns:xlink="http://www.w3.org/1999/xlink" preserveAspectRatio="xMidYMid" width="37" height="31" viewBox="0 0 37 31">
  <defs>
    <style>

      .cls-2 {
        fill: #ffffff;
      }
    </style>
  </defs>
  <path d="M35.835,30.993 C35.835,30.993 1.176,30.993 1.176,30.993 C0.531,30.993 0.011,30.457 0.011,29.796 C0.011,29.796 0.011,24.522 0.011,24.522 C0.011,24.522 2.337,24.522 2.337,24.522 C2.337,24.522 2.337,28.598 2.337,28.598 C2.337,28.598 34.673,28.598 34.673,28.598 C34.673,28.598 34.673,24.522 34.673,24.522 C34.673,24.522 37.000,24.522 37.000,24.522 C37.000,24.522 37.000,29.796 37.000,29.796 C37.000,30.458 36.479,30.993 35.835,30.993 ZM31.063,25.391 C31.063,25.391 31.063,25.359 31.063,25.359 C31.063,24.747 30.566,24.250 29.953,24.250 C29.340,24.250 28.844,24.747 28.844,25.359 C28.844,25.359 28.844,25.391 28.844,25.391 C28.844,25.505 28.877,25.609 28.909,25.713 C28.909,25.713 28.669,25.710 28.669,25.710 C28.669,25.699 28.669,25.688 28.669,25.678 C28.669,23.196 28.669,21.178 28.669,21.178 C28.609,21.198 28.529,21.198 28.469,21.198 C28.469,21.198 19.458,21.198 19.458,21.198 C18.797,21.198 18.256,20.650 18.256,19.981 C18.256,19.981 18.256,10.327 18.256,10.327 C19.478,8.922 20.720,7.465 20.720,7.465 C20.720,7.465 21.004,7.214 20.984,7.024 C21.241,7.053 21.492,7.150 21.681,7.324 C21.681,7.324 30.692,15.742 30.692,15.742 C30.932,15.965 31.072,16.289 31.072,16.634 C31.072,16.634 31.072,21.098 31.072,25.740 C31.072,25.740 30.992,25.739 30.992,25.739 C31.029,25.628 31.063,25.514 31.063,25.391 ZM28.669,17.162 C28.669,17.162 20.659,9.677 20.659,9.677 C20.659,9.677 20.659,18.764 20.659,18.764 C20.659,18.764 28.469,18.764 28.469,18.764 C28.529,18.764 28.609,18.764 28.669,18.784 C28.669,18.784 28.669,17.162 28.669,17.162 ZM16.392,11.007 C16.108,11.302 15.836,10.973 15.836,10.973 C15.836,10.973 12.505,6.828 12.505,6.828 C12.505,6.828 11.998,6.335 12.547,6.335 C13.097,6.335 14.424,6.335 14.424,6.335 C14.424,6.335 14.424,6.004 14.424,5.492 C14.424,4.034 14.424,1.382 14.424,0.301 C14.424,0.301 14.350,0.007 14.780,0.007 C15.213,0.007 17.111,0.007 17.422,0.007 C17.732,0.007 17.724,0.254 17.724,0.254 C17.724,1.303 17.724,4.047 17.724,5.457 C17.724,5.914 17.724,6.210 17.724,6.210 C17.724,6.210 18.789,6.210 19.457,6.210 C20.124,6.210 19.622,6.727 19.622,6.727 C19.622,6.727 16.788,10.601 16.392,11.007 ZM8.644,25.151 C8.644,25.820 8.104,26.368 7.443,26.368 C6.782,26.368 6.241,25.820 6.241,25.151 C6.241,25.151 6.241,8.217 6.241,8.217 C6.241,7.547 6.782,7.000 7.443,7.000 C7.443,7.000 10.108,7.000 10.108,7.000 C9.717,7.120 10.282,7.592 10.282,7.592 C10.282,7.592 12.007,9.434 12.007,9.434 C12.007,9.434 8.644,9.434 8.644,9.434 C8.644,9.434 8.644,25.151 8.644,25.151 Z" id="path-1" class="cls-2" fill-rule="evenodd"/>
</svg>
