<?xml version="1.0" encoding="utf-8"?>
<!-- Generator: Adobe Illustrator 18.1.1, SVG Export Plug-In . SVG Version: 6.00 Build 0)  -->
<svg version="1.1" id="Слой_1" xmlns="http://www.w3.org/2000/svg" xmlns:xlink="http://www.w3.org/1999/xlink" x="0px" y="0px"
	 viewBox="-594 408 278 209" enable-background="new -594 408 278 209" xml:space="preserve">
<path id="path-1" fill="#3C3C3C" d="M-430.5,531h-38.4l5.8-5.8c2.4,1.4,5.1,2.2,8.1,2.2c8.6,0,15.5-6.7,15.5-15c0-3.1-1-5.9-2.6-8.3
	l10.3-10.3h1.2c1.9,0,3.5,1.5,3.5,3.4v30.5C-427,529.5-428.6,531-430.5,531z M-430.5,500.5h-7v3.4h7V500.5z M-455,523.4
	c-1.8,0-3.6-0.4-5.1-1.2l15.1-15.1c0.9,1.6,1.4,3.4,1.4,5.3C-443.6,518.5-448.7,523.4-455,523.4z M-479.6,534.7l46-46l2.7,2.7
	l-46,46L-479.6,534.7z M-455,501.4c2.1,0,4,0.5,5.7,1.5l-15.3,15.3c-1.1-1.7-1.7-3.7-1.7-5.8C-466.4,506.3-461.3,501.4-455,501.4z
	 M-455,497.4c-8.6,0-15.5,6.7-15.5,15c0,3.3,1.1,6.3,2.9,8.8l-9.8,9.8h-2.1c-1.9,0-3.5-1.5-3.5-3.4v-30.5c0-1.9,1.6-3.4,3.5-3.4
	h12.3c0.9-3.4,1.8-6.8,5.3-6.8h14c3.5,0,4.4,3.4,5.3,6.8h2.6l-6.1,6.1C-448.8,498.3-451.8,497.4-455,497.4z"/>
</svg>
