<svg enable-background="new 0 0 32 32" viewBox="0 0 32 32" xmlns="http://www.w3.org/2000/svg"><path d="m24 14.059v-8.475l-5.586-5.584h-18.414v32h24v-.059c4.5-.498 8-4.31 8-8.94 0-4.633-3.5-8.444-8-8.942zm-6.002-11.646l3.588 3.587h-3.588c0 0 0-3.587 0-3.587zm-15.998 27.587v-28.002h14v6.001h6v6.06c-.863.095-1.688.311-2.461.633-.583-.679-1.539-.692-1.539-.692h-2l-2-2h-4l-2 2h-2c0 0-2 0-2 2v6c0 2 2 2 2 2s4.531 0 8.058 0c .267 2.42 1.493 4.548 3.29 6zm12.991-11.093c-.333.651-.589 1.347-.756 2.077-.55.62-1.343 1.016-2.235 1.016-1.658 0-3-1.342-3-3 0-1.656 1.342-3 3-3 1.624 0 2.94 1.295 2.991 2.907zm8.009 11.093c-3.865-.008-6.995-3.135-7-6.999.006-3.865 3.135-6.995 7-7.001 3.863.006 6.991 3.136 6.999 7.001-.008 3.864-3.136 6.991-6.999 6.999z" fill="#828691"/><path d="m19 27h3l-3-3zm .999-4l5-5 3.001 3-5 5z" fill="#828691"/></svg>