<svg xmlns="http://www.w3.org/2000/svg" viewBox="0 0 30 30"><defs><style>.a{fill:#fff;}</style></defs><title>icon</title><path class="a" d="M28.86,15a4.38,4.38,0,0,0-3.38-4.28l0-.11a4.31,4.31,0,0,0,.66-2.29,4.42,4.42,0,0,0-4.41-4.41,4.31,4.31,0,0,0-2.29.66l-0.11,0a4.39,4.39,0,0,0-8.55,0l-0.11,0a4.39,4.39,0,0,0-6,6l0,0.11a4.39,4.39,0,0,0,0,8.55l0,0.11a4.31,4.31,0,0,0-.66,2.29,4.42,4.42,0,0,0,4.41,4.41,4.31,4.31,0,0,0,2.29-.66l0.11,0a4.39,4.39,0,0,0,8.55,0l0.11,0a4.31,4.31,0,0,0,2.29.66,4.42,4.42,0,0,0,4.41-4.41,4.31,4.31,0,0,0-.66-2.29l0-.11A4.38,4.38,0,0,0,28.86,15ZM15,22.71A7.71,7.71,0,1,1,22.71,15,7.72,7.72,0,0,1,15,22.71Z"/><circle class="a" cx="15" cy="15" r="4.25"/></svg>