<svg id="Capa_1" data-name="Capa 1" xmlns="http://www.w3.org/2000/svg" viewBox="0 0 512 383.3"><defs><style>.cls-1{fill:#fff;}</style></defs><title>slider</title><path class="cls-1" d="M216,121.7a10,10,0,1,0,10,10A10,10,0,0,0,216,121.7Z" transform="translate(0 -58.7)"/><path class="cls-1" d="M276,121.7a30,30,0,1,0,30,30A30,30,0,0,0,276,121.7Zm0,40a10,10,0,1,1,10-10A10,10,0,0,1,276,161.7Z" transform="translate(0 -58.7)"/><path class="cls-1" d="M176,121.7H136a10,10,0,0,0,0,20h40a10,10,0,1,0,0-20Z" transform="translate(0 -58.7)"/><path class="cls-1" d="M376,141.7H336a10,10,0,0,0,0,20h40a10,10,0,0,0,0-20Z" transform="translate(0 -58.7)"/><path class="cls-1" d="M248.87,344.7H416a10,10,0,0,0,10-10v-10h76a10,10,0,0,0,10-10V233.36c0-.21,0-.41,0-.62s0-.4,0-.61V88.7a10,10,0,0,0-10-10H426v-10a10,10,0,0,0-10-10H96a10,10,0,0,0-10,10v10H10a10,10,0,0,0-10,10V232.13c0,.21,0,.41,0,.61s0,.41,0,.62V314.7a10,10,0,0,0,10,10H86v10a10,10,0,0,0,10,10H248.87ZM426,98.7h66V232.13c0,.21,0,.41,0,.61s0,.41,0,.62V304.7H426ZM86,304.7H20V233.36c0-.21,0-.41,0-.62s0-.41,0-.61V98.7H86Zm20-226H406V270l-72.81-75.24a10,10,0,0,0-7.19-3h0a10,10,0,0,0-7.2,3.1L266,250.21l-2.58-2.61L193.2,174.76A10,10,0,0,0,186,171.7h0a10,10,0,0,0-7.19,3L106,250Zm0,200,80-82.65L245.62,258c.15.19.29.37.46.55l2.49,2.52,10.23,10.61a10.5,10.5,0,0,0,1.63,1.36l28.25,28.51a10,10,0,0,0,14.64-13.62l-23.25-23.47,46-48.28L406,298.74v26H106Z" transform="translate(0 -58.7)"/><path class="cls-1" d="M192.38,402a10,10,0,1,0,10,10A10,10,0,0,0,192.38,402Z" transform="translate(0 -58.7)"/><path class="cls-1" d="M256,382a30,30,0,1,0,30,30A30,30,0,0,0,256,382Zm0,40a10,10,0,1,1,10-10A10,10,0,0,1,256,422Z" transform="translate(0 -58.7)"/><path class="cls-1" d="M319.62,402a10,10,0,1,0,10,10A10,10,0,0,0,319.62,402Z" transform="translate(0 -58.7)"/><path class="cls-1" d="M369.91,402a10,10,0,1,0,9.53,10A9.78,9.78,0,0,0,369.91,402Z" transform="translate(0 -58.7)"/><path class="cls-1" d="M142.09,402a10,10,0,1,0,9.54,10A9.78,9.78,0,0,0,142.09,402Z" transform="translate(0 -58.7)"/></svg>