<svg xmlns="http://www.w3.org/2000/svg" viewBox="0 0 30 30"><defs><style>.a{fill:#90919c;}</style></defs><path class="a" d="M23,30H7a3.3,3.3,0,0,1-3-3.28V10A1,1,0,0,1,5,9H25a1,1,0,0,1,1,1V26.72A3.3,3.3,0,0,1,23,30ZM6,11V26.72A1.37,1.37,0,0,0,7,28H23a1.37,1.37,0,0,0,1-1.28V11H6Z"/><path class="a" d="M27,11H3a1,1,0,0,1-1-1V6.49C2,5,3.33,4,5.31,4H8V2.29A2.55,2.55,0,0,1,10.2,0h9.6A2.55,2.55,0,0,1,22,2.29V4h2.69C26.64,4,28,5,28,6.49V10A1,1,0,0,1,27,11ZM4,9H26V6.49A1.32,1.32,0,0,0,24.69,6H21a1,1,0,0,1-1-1V2.29A2.15,2.15,0,0,0,19.7,2H10.3a1,1,0,0,0-.31.38V5A1,1,0,0,1,9,6H5.31A1.32,1.32,0,0,0,4,6.49V9Zm6.33-7,9.34,0h0Z"/><path class="a" d="M20,26a1,1,0,0,1-1-1V14a1,1,0,0,1,2,0V25A1,1,0,0,1,20,26Z"/><path class="a" d="M11,26a1,1,0,0,1-1-1V14a1,1,0,0,1,2,0V25A1,1,0,0,1,11,26Z"/><path class="a" d="M15,26a1,1,0,0,1-1-1V14a1,1,0,0,1,2,0V25A1,1,0,0,1,15,26Z"/><path class="a" d="M21,6H9A1,1,0,0,1,9,4H21A1,1,0,0,1,21,6Z"/></svg>
