<svg width="20" height="20" viewBox="0 0 20 20" fill="none" xmlns="http://www.w3.org/2000/svg">
<path d="M16.2493 18.3333C16.9385 18.3333 17.4993 17.7725 17.4993 17.0833V14.1667C17.4993 13.4775 16.9385 12.9167 16.2493 12.9167C15.2743 12.9167 14.316 12.7633 13.3993 12.4608C13.1802 12.3916 12.9464 12.3832 12.7229 12.4365C12.4994 12.4898 12.2945 12.6027 12.1302 12.7633L10.9302 13.9633C8.85611 12.8373 7.15271 11.1345 6.02602 9.06083L7.21602 7.86333C7.55935 7.545 7.68268 7.06083 7.53602 6.595C7.23413 5.67692 7.08109 4.71644 7.08268 3.75C7.08268 3.06083 6.52185 2.5 5.83268 2.5H2.91602C2.22685 2.5 1.66602 3.06083 1.66602 3.75C1.66602 11.7917 8.20768 18.3333 16.2493 18.3333ZM2.91602 3.33333H5.83268C5.94319 3.33333 6.04917 3.37723 6.12731 3.45537C6.20545 3.53351 6.24935 3.63949 6.24935 3.75C6.24935 4.81417 6.41602 5.85917 6.74352 6.85C6.76758 6.9219 6.77039 6.99922 6.75162 7.07268C6.73285 7.14614 6.69329 7.21262 6.63768 7.26417L5.00768 8.9025C6.37185 11.5925 8.38685 13.6075 11.0893 14.9833L12.7135 13.3583C12.7689 13.3035 12.8382 13.2648 12.914 13.2463C12.9897 13.2278 13.0691 13.2302 13.1435 13.2533C14.1402 13.5833 15.1852 13.75 16.2493 13.75C16.4785 13.75 16.666 13.9375 16.666 14.1667V17.0833C16.666 17.3125 16.4785 17.5 16.2493 17.5C8.66768 17.5 2.49935 11.3317 2.49935 3.75C2.49935 3.63949 2.54325 3.53351 2.62139 3.45537C2.69953 3.37723 2.80551 3.33333 2.91602 3.33333Z" fill="#333333"/>
</svg>
