<svg width="20" height="20" viewBox="0 0 20 20" fill="none" xmlns="http://www.w3.org/2000/svg">
<path d="M9.58297 5C10.4037 5 11.2165 5.16166 11.9747 5.47575C12.733 5.78984 13.422 6.25021 14.0024 6.83058C14.5828 7.41095 15.0431 8.09994 15.3572 8.85823C15.6713 9.61651 15.833 10.4292 15.833 11.25C15.833 12.0708 15.6713 12.8835 15.3572 13.6418C15.0431 14.4001 14.5828 15.089 14.0024 15.6694C13.422 16.2498 12.733 16.7102 11.9747 17.0242C11.2165 17.3383 10.4037 17.5 9.58297 17.5C7.92537 17.5 6.33565 16.8415 5.16355 15.6694C3.99145 14.4973 3.33297 12.9076 3.33297 11.25C3.33297 9.59239 3.99145 8.00268 5.16355 6.83058C6.33565 5.65848 7.92537 5 9.58297 5ZM9.58297 5.83333C8.14638 5.83333 6.76863 6.40401 5.75281 7.41984C4.73698 8.43566 4.1663 9.81341 4.1663 11.25C4.1663 12.6866 4.73698 14.0643 5.75281 15.0802C6.76863 16.096 8.14638 16.6667 9.58297 16.6667C11.0196 16.6667 12.3973 16.096 13.4131 15.0802C14.429 14.0643 14.9996 12.6866 14.9996 11.25C14.9996 9.81341 14.429 8.43566 13.4131 7.41984C12.3973 6.40401 11.0196 5.83333 9.58297 5.83333ZM9.1663 7.5H9.99964V11.1358L12.5396 12.32L12.1871 13.075L9.1663 11.6667V7.5ZM12.708 4.375L13.2438 3.73666L16.4355 6.415L15.8996 7.05333L12.708 4.375ZM6.45797 4.375L3.2663 7.05333L2.73047 6.415L5.92214 3.73666L6.45797 4.375Z" fill="#333333"/>
</svg>
