<svg width="90" height="90" viewBox="0 0 90 90" fill="none" xmlns="http://www.w3.org/2000/svg">
<path d="M60 67.5C61.9891 67.5 63.8968 68.2902 65.3033 69.6967C66.7098 71.1032 67.5 73.0109 67.5 75C67.5 76.9891 66.7098 78.8968 65.3033 80.3033C63.8968 81.7098 61.9891 82.5 60 82.5C58.0109 82.5 56.1032 81.7098 54.6967 80.3033C53.2902 78.8968 52.5 76.9891 52.5 75C52.5 73.0109 53.2902 71.1032 54.6967 69.6967C56.1032 68.2902 58.0109 67.5 60 67.5ZM60 71.25C59.0054 71.25 58.0516 71.6451 57.3484 72.3483C56.6451 73.0516 56.25 74.0054 56.25 75C56.25 75.9946 56.6451 76.9484 57.3484 77.6517C58.0516 78.3549 59.0054 78.75 60 78.75C60.9946 78.75 61.9484 78.3549 62.6517 77.6517C63.3549 76.9484 63.75 75.9946 63.75 75C63.75 74.0054 63.3549 73.0516 62.6517 72.3483C61.9484 71.6451 60.9946 71.25 60 71.25ZM26.25 67.5C28.2391 67.5 30.1468 68.2902 31.5533 69.6967C32.9598 71.1032 33.75 73.0109 33.75 75C33.75 76.9891 32.9598 78.8968 31.5533 80.3033C30.1468 81.7098 28.2391 82.5 26.25 82.5C24.2609 82.5 22.3532 81.7098 20.9467 80.3033C19.5402 78.8968 18.75 76.9891 18.75 75C18.75 73.0109 19.5402 71.1032 20.9467 69.6967C22.3532 68.2902 24.2609 67.5 26.25 67.5ZM26.25 71.25C25.2554 71.25 24.3016 71.6451 23.5984 72.3483C22.8951 73.0516 22.5 74.0054 22.5 75C22.5 75.9946 22.8951 76.9484 23.5984 77.6517C24.3016 78.3549 25.2554 78.75 26.25 78.75C27.2446 78.75 28.1984 78.3549 28.9016 77.6517C29.6049 76.9484 30 75.9946 30 75C30 74.0054 29.6049 73.0516 28.9016 72.3483C28.1984 71.6451 27.2446 71.25 26.25 71.25ZM67.5 22.5H16.0237L25.575 45H56.25C56.8331 45.0009 57.4083 44.865 57.9293 44.6031C58.4504 44.3413 58.9027 43.9609 59.25 43.4925L70.5 28.4925H70.5038C70.9196 27.9351 71.1723 27.273 71.2336 26.5802C71.2948 25.8875 71.1622 25.1913 70.8506 24.5696C70.5389 23.9479 70.0605 23.425 69.4688 23.0596C68.8771 22.6941 68.1955 22.5003 67.5 22.5ZM56.25 48.75H25.7475L22.875 54.6L22.5 56.25C22.5 57.2446 22.8951 58.1984 23.5984 58.9016C24.3016 59.6049 25.2554 60 26.25 60H67.5V63.75H26.25C24.9441 63.7506 23.6607 63.4103 22.5268 62.7626C21.3928 62.115 20.4476 61.1825 19.7846 60.0574C19.1217 58.9323 18.764 57.6536 18.747 56.3479C18.73 55.0421 19.0541 53.7545 19.6875 52.6125L22.3875 47.085L8.7675 15H3.75V11.25H11.25L14.4338 18.75H67.5C68.917 18.7501 70.305 19.1517 71.5032 19.9082C72.7014 20.6647 73.6608 21.7452 74.2702 23.0245C74.8797 24.3037 75.1142 25.7295 74.9467 27.1366C74.7792 28.5437 74.2165 29.8745 73.3237 30.975L62.3962 45.5475C61.7054 46.5368 60.7858 47.3445 59.7157 47.9021C58.6456 48.4597 57.4566 48.7506 56.25 48.75Z" fill="#5A9E08"/>
<g clip-path="url(#clip0)">
<rect x="28.7314" y="17.561" width="30" height="6.58537" fill="white"/>
<path d="M34.585 22.683L40.8045 29.2684L52.1459 17.561" stroke="#5A9E08" stroke-width="3.5"/>
<path d="M58.4454 23.7803C58.4454 31.9063 51.858 38.4937 43.732 38.4937C35.606 38.4937 29.0186 31.9063 29.0186 23.7803C29.0186 15.6543 35.606 9.06689 43.732 9.06689C51.858 9.06689 58.4454 15.6543 58.4454 23.7803Z" stroke="#5A9E08" stroke-width="3.5"/>
</g>
<defs>
<clipPath id="clip0">
<rect width="35.1219" height="35.122" fill="white" transform="translate(25.8047 5.85352)"/>
</clipPath>
</defs>
</svg>
