<svg width="20" height="20" viewBox="0 0 20 20" fill="none" xmlns="http://www.w3.org/2000/svg">
<path fill-rule="evenodd" clip-rule="evenodd" d="M10 20C15.5228 20 20 15.5228 20 10C20 4.47715 15.5228 0 10 0C4.47715 0 0 4.47715 0 10C0 15.5228 4.47715 20 10 20ZM10.5181 4.79521V12.456H9.48129V4.79521H10.5181ZM9.99969 14.544C9.61089 14.544 9.27969 14.2128 9.27969 13.824C9.27969 13.4352 9.61089 13.104 9.99969 13.104C10.3885 13.104 10.7197 13.4352 10.7197 13.824C10.7197 14.2128 10.3885 14.544 9.99969 14.544Z" fill="#888888"/>
</svg>
