<svg width="19" height="17" viewBox="0 0 19 17" fill="none" xmlns="http://www.w3.org/2000/svg">
<path d="M2.24403 8.252C1.81568 7.82354 1.48389 7.30844 1.2709 6.74126C1.05792 6.17407 0.968659 5.5679 1.00911 4.9634C1.04957 4.35889 1.2188 3.77002 1.50547 3.23628C1.79213 2.70253 2.1896 2.23624 2.67123 1.86868C3.15285 1.50111 3.70749 1.24077 4.29796 1.10511C4.88844 0.969441 5.50109 0.961591 6.09485 1.08208C6.6886 1.20257 7.24974 1.44862 7.74062 1.80372C8.2315 2.15882 8.64079 2.61477 8.94103 3.141H10.059C10.3593 2.61477 10.7686 2.15882 11.2595 1.80372C11.7503 1.44862 12.3115 1.20257 12.9052 1.08208C13.499 0.961591 14.1116 0.969441 14.7021 1.10511C15.2926 1.24077 15.8472 1.50111 16.3288 1.86868C16.8105 2.23624 17.2079 2.70253 17.4946 3.23628C17.7813 3.77002 17.9505 4.35889 17.991 4.9634C18.0314 5.5679 17.9422 6.17407 17.7292 6.74126C17.5162 7.30844 17.1844 7.82354 16.756 8.252L9.50003 15.51L2.24403 8.253V8.252ZM17.462 8.962C17.9742 8.44982 18.3748 7.83721 18.6387 7.1627C18.9026 6.48819 19.0241 5.76637 18.9955 5.04263C18.9669 4.31889 18.7889 3.6089 18.4726 2.9573C18.1563 2.30571 17.7086 1.7266 17.1577 1.25642C16.6067 0.786228 15.9645 0.435126 15.2713 0.225193C14.578 0.0152591 13.8489 -0.0489643 13.1297 0.0365611C12.4104 0.122086 11.7167 0.35551 11.092 0.722153C10.4674 1.0888 9.92535 1.58072 9.50003 2.167C9.07472 1.58072 8.5327 1.0888 7.90805 0.722153C7.2834 0.35551 6.58964 0.122086 5.87041 0.0365611C5.15117 -0.0489643 4.42202 0.0152591 3.72881 0.225193C3.0356 0.435126 2.39333 0.786228 1.84239 1.25642C1.29145 1.7266 0.843762 2.30571 0.52748 2.9573C0.211198 3.6089 0.0331654 4.31889 0.00457904 5.04263C-0.0240073 5.76637 0.0974711 6.48819 0.361374 7.1627C0.625278 7.83721 1.0259 8.44982 1.53803 8.962L9.50003 16.923L17.462 8.963V8.962Z" fill="white"/>
</svg>
