<svg width="20" height="20" viewBox="0 0 20 20" fill="none" xmlns="http://www.w3.org/2000/svg">
<path d="M9.5838 5.83333C10.1363 5.83333 10.6662 6.05282 11.0569 6.44352C11.4476 6.83422 11.6671 7.36413 11.6671 7.91666C11.6671 8.4692 11.4476 8.9991 11.0569 9.3898C10.6662 9.7805 10.1363 9.99999 9.5838 9.99999C9.03127 9.99999 8.50136 9.7805 8.11066 9.3898C7.71996 8.9991 7.50047 8.4692 7.50047 7.91666C7.50047 7.36413 7.71996 6.83422 8.11066 6.44352C8.50136 6.05282 9.03127 5.83333 9.5838 5.83333ZM9.5838 6.66666C9.25228 6.66666 8.93434 6.79836 8.69992 7.03278C8.4655 7.2672 8.3338 7.58514 8.3338 7.91666C8.3338 8.24818 8.4655 8.56612 8.69992 8.80055C8.93434 9.03497 9.25228 9.16666 9.5838 9.16666C9.91532 9.16666 10.2333 9.03497 10.4677 8.80055C10.7021 8.56612 10.8338 8.24818 10.8338 7.91666C10.8338 7.58514 10.7021 7.2672 10.4677 7.03278C10.2333 6.79836 9.91532 6.66666 9.5838 6.66666ZM5.66714 10.2975L9.5838 16.7392L13.5005 10.2975C13.9229 9.6025 14.1527 8.80762 14.1665 7.99444C14.1802 7.18126 13.9773 6.37907 13.5786 5.6702C13.18 4.96133 12.5998 4.37131 11.8978 3.9607C11.1957 3.5501 10.3971 3.33369 9.5838 3.33369C8.77051 3.33369 7.97186 3.5501 7.26982 3.9607C6.56779 4.37131 5.98766 4.96133 5.58896 5.6702C5.19027 6.37907 4.98739 7.18126 5.00112 7.99444C5.01486 8.80762 5.24473 9.6025 5.66714 10.2975ZM14.2121 10.7308L9.5838 18.3433L4.95547 10.7308C4.4564 9.90945 4.18487 8.97008 4.16873 8.00911C4.1526 7.04814 4.39244 6.10018 4.86364 5.26251C5.33485 4.42484 6.02045 3.72763 6.85009 3.24242C7.67973 2.75722 8.62353 2.5015 9.58464 2.5015C10.5457 2.5015 11.4895 2.75722 12.3192 3.24242C13.1488 3.72763 13.8344 4.42484 14.3056 5.26251C14.7768 6.10018 15.0167 7.04814 15.0005 8.00911C14.9844 8.97008 14.7129 9.90945 14.2138 10.7308H14.2121Z" fill="#333333"/>
</svg>
