<svg width="160" height="160" viewBox="0 0 160 160" fill="none" xmlns="http://www.w3.org/2000/svg">
<path d="M110 60C82.4144 60 60 82.4384 60 110.053C60 137.667 82.4144 160 110 160C137.586 160 160 137.667 160 110.053C160 82.4384 137.586 60 110 60ZM110 63.2872C135.773 63.2872 156.61 84.2534 156.61 110.053C156.61 135.853 135.773 156.713 110 156.713C84.227 156.713 63.3898 135.853 63.3898 110.053C63.3898 84.2534 84.227 63.287 110 63.2872Z" fill="#5A9E08"/>
<path d="M53.7609 0.172451C47.33 -0.36966 40.6907 0.35663 34.1757 2.48907C8.11585 11.0176 -6.04812 39.0781 2.48133 65.1353C11.0108 91.1926 39.0731 105.461 65.133 96.9324C65.3511 96.8722 65.5547 96.7681 65.7313 96.6267C65.908 96.4853 66.054 96.3095 66.1604 96.1098C66.2669 95.9102 66.3316 95.6909 66.3506 95.4654C66.3696 95.24 66.3425 95.013 66.2709 94.7984C66.1994 94.5837 66.0848 94.3859 65.9344 94.2169C65.7839 94.0479 65.6006 93.9113 65.3956 93.8154C65.1906 93.7196 64.9683 93.6665 64.7421 93.6593C64.5159 93.6522 64.2907 93.6911 64.08 93.7738C39.7326 101.742 13.6092 88.4273 5.64024 64.0822C-2.3287 39.7379 10.8812 13.6156 35.2287 5.64744C59.5761 -2.32043 85.6995 10.9941 93.6685 35.339C96.6131 44.3347 96.8116 53.9639 94.0896 63.0297C93.9877 63.2466 93.9337 63.483 93.9314 63.7227C93.929 63.9624 93.9784 64.1997 94.0762 64.4186C94.174 64.6375 94.3177 64.8327 94.4978 64.991C94.6778 65.1492 94.8899 65.2668 95.1195 65.3356C95.3491 65.4045 95.5909 65.4231 95.8283 65.39C96.0658 65.357 96.2933 65.2731 96.4953 65.1441C96.6974 65.0152 96.8693 64.8442 96.9993 64.6428C97.1293 64.4414 97.2143 64.2144 97.2486 63.9771C100.166 54.2598 99.9837 43.9286 96.8274 34.2857C90.4303 14.7428 73.0537 1.7991 53.7609 0.172451Z" fill="#5A9E08"/>
<path d="M135.122 90.018C134.849 90.0572 134.586 90.1901 134.358 90.4049L97.5226 124.648L85.8465 108.301C85.5327 107.868 85.1085 107.626 84.6668 107.627C84.2251 107.629 83.8018 107.874 83.4894 108.308C83.1771 108.743 83.0011 109.332 83 109.947C82.9989 110.562 83.1727 111.152 83.4835 111.589L96.1326 129.291C96.4082 129.688 96.7765 129.936 97.1714 129.989C97.5662 130.042 97.9618 129.898 98.2871 129.582L136.234 94.2745C136.553 93.9896 136.792 93.5626 136.913 93.0636C137.033 92.5646 137.029 92.0232 136.9 91.5283C136.77 91.0334 136.524 90.6145 136.201 90.3401C135.878 90.0657 135.498 89.9523 135.122 90.0184V90.018Z" fill="#5A9E08"/>
<path d="M16.7004 25.0979C15.8276 25.1888 15.1161 26.0657 15.2071 26.9385C15.298 27.8112 16.1749 28.5226 17.0477 28.4316H25.1051L34.0654 63.8524C34.2471 64.5562 34.936 65.0952 35.6629 65.1025H72.9627C73.6553 65.1025 74.3295 64.6444 74.5603 63.9913C77.8081 54.7928 80.7657 45.6461 83.8679 36.4881C84.2247 35.4791 83.3406 34.2492 82.2703 34.2657H35.6629C34.7821 34.2523 33.9718 35.0516 33.9718 35.9325C33.9718 36.8133 34.7821 37.6121 35.6629 37.5994H79.9087L77.9638 43.4334C65.9273 43.4334 53.8715 43.4334 41.8448 43.4334C40.972 43.4698 40.2109 44.2968 40.2473 45.1697C40.2836 46.0423 41.1109 46.8034 41.9838 46.7671H76.783L74.8382 52.601C65.7655 52.601 56.6727 52.601 47.61 52.601C46.7371 52.6366 45.976 53.4648 46.0124 54.3373C46.0488 55.2102 46.8761 55.9712 47.7489 55.9348H73.6573L71.7125 61.7688H36.9827L28.0224 26.348C27.8351 25.6215 27.1053 25.0743 26.3553 25.0979H17.0477C16.9324 25.0868 16.8158 25.0868 16.7004 25.0979Z" fill="#5A9E08"/>
<path d="M39.6208 70.9647C39.1786 70.9923 38.7656 71.1945 38.4725 71.5266C38.1794 71.8588 38.0303 72.2937 38.0579 72.7358C38.0856 73.1779 38.2877 73.5909 38.6199 73.8839C38.952 74.177 39.387 74.3261 39.8291 74.2984H49.1364C49.3571 74.3013 49.5763 74.2603 49.781 74.1778C49.9858 74.0954 50.1721 73.9731 50.3292 73.818C50.4863 73.6629 50.6111 73.4782 50.6962 73.2745C50.7814 73.0709 50.8252 72.8524 50.8252 72.6316C50.8252 72.4109 50.7814 72.1924 50.6962 71.9887C50.6111 71.7851 50.4863 71.6003 50.3292 71.4452C50.1721 71.2902 49.9858 71.1677 49.781 71.0853C49.5763 71.0028 49.3571 70.9618 49.1364 70.9647H39.8291C39.7597 70.9603 39.6902 70.9603 39.6208 70.9647Z" fill="#5A9E08"/>
<path d="M58.3099 70.9647C57.8678 70.9831 57.4511 71.1765 57.1515 71.5021C56.8519 71.8277 56.694 72.259 56.7124 72.7011C56.7308 73.1432 56.9241 73.5598 57.2497 73.8594C57.5754 74.159 58.0067 74.3168 58.4488 74.2984H67.7561C67.9768 74.3013 68.1959 74.2603 68.4007 74.1779C68.6054 74.0954 68.7918 73.9731 68.9489 73.818C69.106 73.663 69.2307 73.4782 69.3159 73.2745C69.401 73.0709 69.4449 72.8524 69.4449 72.6316C69.4449 72.4109 69.401 72.1924 69.3159 71.9887C69.2307 71.7851 69.106 71.6003 68.9489 71.4453C68.7918 71.2902 68.6054 71.1678 68.4007 71.0853C68.1959 71.0028 67.9768 70.9618 67.7561 70.9647H58.4488C58.4025 70.9628 58.3562 70.9628 58.3099 70.9647Z" fill="#5A9E08"/>
</svg>
