<svg width="40" height="40" viewBox="0 0 40 40" fill="none" xmlns="http://www.w3.org/2000/svg">
<circle cx="20" cy="20" r="20" fill="#9D2F2F"/>
<path fill-rule="evenodd" clip-rule="evenodd" d="M19.8523 24.9371H20.8224C20.8224 24.9371 21.1134 24.8843 21.2589 24.7257C21.4044 24.5671 21.4044 24.25 21.4044 24.25C21.4044 24.25 21.4044 22.8757 21.9865 22.6643C22.5685 22.4529 23.3446 24.0386 24.1207 24.62C24.7027 25.0957 25.1393 24.99 25.1393 24.99L27.2734 24.9371C27.2734 24.9371 28.389 24.8843 27.8555 23.88C27.807 23.8271 27.5645 23.1929 26.2548 21.8714C24.8967 20.4971 25.0907 20.7614 26.6914 18.3829C27.6615 16.9557 28.0495 16.11 27.9525 15.6871C27.8555 15.3171 27.1279 15.4229 27.1279 15.4229H24.7027C24.7027 15.4229 24.5087 15.37 24.4117 15.4757C24.2662 15.5814 24.2177 15.74 24.2177 15.74C24.2177 15.74 23.8296 16.85 23.3446 17.8014C22.2775 19.7571 21.841 19.8629 21.6955 19.7571C21.3074 19.4929 21.4044 18.5943 21.4044 18.0129C21.4044 16.11 21.6955 15.3171 20.8709 15.1057C20.6284 15.0529 20.4343 15 19.7553 15C18.8822 15 18.1546 15 17.7666 15.2114C17.4756 15.37 17.2816 15.6871 17.4271 15.6871C17.5726 15.6871 17.9606 15.7929 18.1546 16.0571C18.3487 16.5329 18.3487 17.3257 18.3487 17.3257C18.3487 17.3257 18.4942 19.5986 18.0091 19.8629C17.6696 20.0743 17.2331 19.6514 16.263 17.8543C15.7779 16.9557 15.3899 15.8986 15.3899 15.8986C15.3899 15.8986 15.3414 15.6871 15.1959 15.5814C15.0504 15.4757 14.8079 15.4229 14.8079 15.4229H12.5282C12.5282 15.4229 12.1886 15.4229 12.0431 15.5814C11.9461 15.74 12.0431 16.0043 12.0431 16.0043C12.0431 16.0043 13.8378 20.55 15.8749 22.8757C17.7666 25.0957 19.8523 24.9371 19.8523 24.9371Z" fill="white"/>
</svg>
