<svg width="40" height="40" viewBox="0 0 40 40" fill="none" xmlns="http://www.w3.org/2000/svg">
<circle cx="20" cy="20" r="20" fill="#9D2F2F"/>
<path d="M23.3335 27C23.7755 27 24.1994 27.1756 24.512 27.4882C24.8246 27.8007 25.0002 28.2246 25.0002 28.6667C25.0002 29.1087 24.8246 29.5326 24.512 29.8452C24.1994 30.1577 23.7755 30.3333 23.3335 30.3333C22.8915 30.3333 22.4675 30.1577 22.155 29.8452C21.8424 29.5326 21.6668 29.1087 21.6668 28.6667C21.6668 28.2246 21.8424 27.8007 22.155 27.4882C22.4675 27.1756 22.8915 27 23.3335 27ZM23.3335 27.8333C23.1125 27.8333 22.9005 27.9211 22.7442 28.0774C22.588 28.2337 22.5002 28.4457 22.5002 28.6667C22.5002 28.8877 22.588 29.0996 22.7442 29.2559C22.9005 29.4122 23.1125 29.5 23.3335 29.5C23.5545 29.5 23.7665 29.4122 23.9228 29.2559C24.079 29.0996 24.1668 28.8877 24.1668 28.6667C24.1668 28.4457 24.079 28.2337 23.9228 28.0774C23.7665 27.9211 23.5545 27.8333 23.3335 27.8333ZM15.8335 27C16.2755 27 16.6994 27.1756 17.012 27.4882C17.3246 27.8007 17.5002 28.2246 17.5002 28.6667C17.5002 29.1087 17.3246 29.5326 17.012 29.8452C16.6994 30.1577 16.2755 30.3333 15.8335 30.3333C15.3915 30.3333 14.9675 30.1577 14.655 29.8452C14.3424 29.5326 14.1668 29.1087 14.1668 28.6667C14.1668 28.2246 14.3424 27.8007 14.655 27.4882C14.9675 27.1756 15.3915 27 15.8335 27ZM15.8335 27.8333C15.6125 27.8333 15.4005 27.9211 15.2442 28.0774C15.088 28.2337 15.0002 28.4457 15.0002 28.6667C15.0002 28.8877 15.088 29.0996 15.2442 29.2559C15.4005 29.4122 15.6125 29.5 15.8335 29.5C16.0545 29.5 16.2665 29.4122 16.4228 29.2559C16.579 29.0996 16.6668 28.8877 16.6668 28.6667C16.6668 28.4457 16.579 28.2337 16.4228 28.0774C16.2665 27.9211 16.0545 27.8333 15.8335 27.8333ZM25.0002 17H13.561L15.6835 22H22.5002C22.6297 22.0002 22.7576 21.97 22.8733 21.9118C22.9891 21.8536 23.0897 21.7691 23.1668 21.665L25.6668 18.3317H25.6677C25.7601 18.2078 25.8162 18.0607 25.8298 17.9067C25.8435 17.7528 25.814 17.5981 25.7447 17.4599C25.6755 17.3217 25.5692 17.2056 25.4377 17.1243C25.3062 17.0431 25.1547 17.0001 25.0002 17ZM22.5002 22.8333H15.7218L15.0835 24.1333L15.0002 24.5C15.0002 24.721 15.088 24.933 15.2442 25.0893C15.4005 25.2455 15.6125 25.3333 15.8335 25.3333H25.0002V26.1667H15.8335C15.5433 26.1668 15.2581 26.0912 15.0061 25.9473C14.7541 25.8033 14.5441 25.5961 14.3968 25.3461C14.2494 25.0961 14.1699 24.8119 14.1662 24.5217C14.1624 24.2316 14.2344 23.9454 14.3752 23.6917L14.9752 22.4633L11.9485 15.3333H10.8335V14.5H12.5002L13.2077 16.1667H25.0002C25.3151 16.1667 25.6235 16.2559 25.8898 16.424C26.156 16.5922 26.3692 16.8323 26.5047 17.1165C26.6401 17.4008 26.6922 17.7177 26.655 18.0304C26.6178 18.343 26.4927 18.6388 26.2943 18.8833L23.866 22.1217C23.7125 22.3415 23.5081 22.521 23.2703 22.6449C23.0325 22.7688 22.7683 22.8335 22.5002 22.8333Z" fill="white"/>
<rect x="15" y="16" width="10" height="1" fill="#9D2F2F"/>
<path d="M19.7172 18.2828C19.8734 18.4391 20.1266 18.4391 20.2828 18.2828L22.8284 15.7373C22.9846 15.581 22.9846 15.3278 22.8284 15.1716C22.6722 15.0154 22.419 15.0154 22.2627 15.1716L20 17.4343L17.7373 15.1716C17.581 15.0154 17.3278 15.0154 17.1716 15.1716C17.0154 15.3278 17.0154 15.581 17.1716 15.7373L19.7172 18.2828ZM19.6 8V18H20.4V8H19.6Z" fill="white"/>
</svg>
