<svg width="13" height="12" viewBox="0 0 13 12" fill="none" xmlns="http://www.w3.org/2000/svg">
<path d="M1.82968 6.16799C1.54411 5.88235 1.32292 5.53896 1.18093 5.16083C1.03894 4.78271 0.979431 4.3786 1.0064 3.97559C1.03337 3.57259 1.14619 3.18001 1.3373 2.82418C1.52841 2.46835 1.79339 2.15749 2.11448 1.91245C2.43556 1.6674 2.80532 1.49384 3.19897 1.4034C3.59262 1.31296 4.00105 1.30772 4.39689 1.38805C4.79273 1.46838 5.16682 1.63241 5.49407 1.86914C5.82133 2.10588 6.09418 2.40984 6.29435 2.76066H7.03968C7.23985 2.40984 7.5127 2.10588 7.83996 1.86914C8.16721 1.63241 8.5413 1.46838 8.93714 1.38805C9.33298 1.30772 9.74141 1.31296 10.1351 1.4034C10.5287 1.49384 10.8985 1.6674 11.2196 1.91245C11.5406 2.15749 11.8056 2.46835 11.9967 2.82418C12.1878 3.18001 12.3007 3.57259 12.3276 3.97559C12.3546 4.3786 12.2951 4.78271 12.1531 5.16083C12.0111 5.53896 11.7899 5.88235 11.5043 6.16799L6.66701 11.0067L1.82968 6.16866V6.16799ZM11.975 6.64133C12.3164 6.29988 12.5835 5.89147 12.7595 5.4418C12.9354 4.99212 13.0164 4.51091 12.9973 4.02841C12.9783 3.54592 12.8596 3.07259 12.6487 2.6382C12.4379 2.2038 12.1394 1.81773 11.7721 1.50427C11.4048 1.19081 10.9766 0.956746 10.5145 0.81679C10.0524 0.676834 9.56626 0.634019 9.08677 0.691036C8.60728 0.748053 8.14477 0.903669 7.72834 1.1481C7.31191 1.39253 6.95056 1.72048 6.66701 2.11133C6.38347 1.72048 6.02212 1.39253 5.60569 1.1481C5.18926 0.903669 4.72675 0.748053 4.24726 0.691036C3.76777 0.634019 3.28167 0.676834 2.81953 0.81679C2.35739 0.956746 1.92921 1.19081 1.56192 1.50427C1.19463 1.81773 0.896167 2.2038 0.685312 2.6382C0.474457 3.07259 0.355769 3.54592 0.336712 4.02841C0.317654 4.51091 0.39864 4.99212 0.574575 5.4418C0.750511 5.89147 1.01759 6.29988 1.35902 6.64133L6.66701 11.9487L11.975 6.642V6.64133Z" fill="#888888"/>
</svg>
