<svg width="10" height="12" viewBox="0 0 10 12" fill="none" xmlns="http://www.w3.org/2000/svg">
<path d="M9.33333 10.1053C9.33333 10.6078 9.12262 11.0897 8.74755 11.445C8.37247 11.8004 7.86377 12 7.33333 12H2.66667C2.13623 12 1.62753 11.8004 1.25245 11.445C0.87738 11.0897 0.666667 10.6078 0.666667 10.1053V2.52632H0V0.631579H3L3.66667 0H6.33333L7 0.631579H10V2.52632H9.33333V10.1053ZM1.33333 2.52632V10.1053C1.33333 10.4403 1.47381 10.7616 1.72386 10.9985C1.97391 11.2353 2.31304 11.3684 2.66667 11.3684H7.33333C7.68696 11.3684 8.02609 11.2353 8.27614 10.9985C8.52619 10.7616 8.66667 10.4403 8.66667 10.1053V2.52632H1.33333ZM9.33333 1.89474V1.26316H6.66667L6 0.631579H4L3.33333 1.26316H0.666667V1.89474H9.33333ZM2.66667 3.78947H3.33333V10.1053H2.66667V3.78947ZM6.66667 3.78947H7.33333V10.1053H6.66667V3.78947Z" fill="#888888"/>
</svg>
