<svg width="40" height="40" viewBox="0 0 40 40" fill="none" xmlns="http://www.w3.org/2000/svg">
<circle cx="20" cy="20" r="20" fill="#9D2F2F"/>
<path d="M27.9485 16.7225C27.9395 16.0507 27.8135 15.3855 27.5762 14.7568C27.3704 14.2265 27.056 13.7449 26.6532 13.3428C26.2504 12.9406 25.768 12.6268 25.2368 12.4213C24.6151 12.1884 23.9584 12.0624 23.2945 12.0488C22.4398 12.0106 22.1688 12 19.9991 12C17.8294 12 17.5513 12 16.7028 12.0488C16.0392 12.0625 15.3828 12.1885 14.7614 12.4213C14.2302 12.6267 13.7477 12.9405 13.3449 13.3426C12.942 13.7448 12.6277 14.2265 12.422 14.7568C12.1882 15.377 12.0623 16.0325 12.0498 16.695C12.0116 17.5492 12 17.8197 12 19.9858C12 22.1519 12 22.4287 12.0498 23.2766C12.0631 23.9401 12.1884 24.5947 12.422 25.2165C12.6281 25.7468 12.9426 26.2283 13.3456 26.6302C13.7485 27.0322 14.2311 27.3459 14.7623 27.5512C15.382 27.7935 16.0385 27.9285 16.7037 27.9503C17.5593 27.9885 17.8303 28 20 28C22.1697 28 22.4478 28 23.2963 27.9503C23.9602 27.9373 24.6169 27.8116 25.2386 27.5787C25.7696 27.373 26.2519 27.059 26.6547 26.6569C27.0575 26.2548 27.3719 25.7733 27.578 25.2432C27.8116 24.6222 27.9369 23.9676 27.9502 23.3033C27.9884 22.4499 28 22.1794 28 20.0124C27.9982 17.8463 27.9982 17.5714 27.9485 16.7225ZM19.9938 24.0821C17.7246 24.0821 15.8863 22.2468 15.8863 19.9814C15.8863 17.7159 17.7246 15.8807 19.9938 15.8807C21.0832 15.8807 22.1279 16.3127 22.8982 17.0818C23.6685 17.8508 24.1013 18.8938 24.1013 19.9814C24.1013 21.0689 23.6685 22.112 22.8982 22.881C22.1279 23.65 21.0832 24.0821 19.9938 24.0821ZM24.2648 16.6852C23.7343 16.6852 23.307 16.2577 23.307 15.729C23.307 15.6035 23.3317 15.4792 23.3798 15.3633C23.428 15.2473 23.4985 15.1419 23.5874 15.0532C23.6763 14.9644 23.7818 14.894 23.898 14.846C24.0141 14.798 24.1386 14.7733 24.2643 14.7733C24.39 14.7733 24.5145 14.798 24.6307 14.846C24.7468 14.894 24.8524 14.9644 24.9413 15.0532C25.0302 15.1419 25.1007 15.2473 25.1488 15.3633C25.1969 15.4792 25.2217 15.6035 25.2217 15.729C25.2217 16.2577 24.7934 16.6852 24.2648 16.6852Z" fill="white"/>
<path d="M19.9952 22.485C21.3773 22.485 22.4977 21.3646 22.4977 19.9825C22.4977 18.6004 21.3773 17.48 19.9952 17.48C18.6131 17.48 17.4927 18.6004 17.4927 19.9825C17.4927 21.3646 18.6131 22.485 19.9952 22.485Z" fill="white"/>
</svg>
