<svg width="22" height="20" viewBox="0 0 22 20" fill="none" xmlns="http://www.w3.org/2000/svg">
<path d="M20.2196 10.5916C20.8126 9.9863 21.2765 9.26231 21.5821 8.46516C21.8877 7.66802 22.0284 6.81496 21.9953 5.95964C21.9622 5.10432 21.756 4.26524 21.3898 3.49517C21.0235 2.72511 20.5051 2.04072 19.8672 1.48505C19.2292 0.929371 18.4855 0.514436 17.6828 0.266334C16.8801 0.0182318 16.0358 -0.0576683 15.2029 0.0434067C14.3701 0.144482 13.5668 0.420345 12.8434 0.853647C12.1201 1.28695 11.4925 1.86832 11 2.56118C10.5075 1.86832 9.87987 1.28695 9.15656 0.853647C8.43325 0.420345 7.62991 0.144482 6.79707 0.0434067C5.96424 -0.0576683 5.11992 0.0182318 4.31721 0.266334C3.51451 0.514436 2.77079 0.929371 2.13283 1.48505C1.49487 2.04072 0.976469 2.72511 0.61023 3.49517C0.243991 4.26524 0.0378384 5.10432 0.00473689 5.95964C-0.0283646 6.81496 0.112301 7.66802 0.417888 8.46516C0.723475 9.26231 1.18737 9.9863 1.7804 10.5916L11 20L20.2196 10.5928V10.5916Z" fill="#9D2F2F"/>
</svg>
