<svg width="200" height="200" viewBox="0 0 200 200" fill="none" xmlns="http://www.w3.org/2000/svg">
<path d="M133.334 150C137.754 150 141.993 151.756 145.119 154.882C148.245 158.007 150.001 162.246 150.001 166.667C150.001 171.087 148.245 175.326 145.119 178.452C141.993 181.577 137.754 183.333 133.334 183.333C128.914 183.333 124.674 181.577 121.549 178.452C118.423 175.326 116.667 171.087 116.667 166.667C116.667 162.246 118.423 158.007 121.549 154.882C124.674 151.756 128.914 150 133.334 150ZM133.334 158.333C131.124 158.333 129.004 159.211 127.441 160.774C125.879 162.337 125.001 164.457 125.001 166.667C125.001 168.877 125.879 170.996 127.441 172.559C129.004 174.122 131.124 175 133.334 175C135.544 175 137.664 174.122 139.227 172.559C140.789 170.996 141.667 168.877 141.667 166.667C141.667 164.457 140.789 162.337 139.227 160.774C137.664 159.211 135.544 158.333 133.334 158.333ZM58.334 150C62.7543 150 66.9935 151.756 70.1191 154.882C73.2447 158.007 75.0006 162.246 75.0006 166.667C75.0006 171.087 73.2447 175.326 70.1191 178.452C66.9935 181.577 62.7543 183.333 58.334 183.333C53.9137 183.333 49.6745 181.577 46.5489 178.452C43.4233 175.326 41.6673 171.087 41.6673 166.667C41.6673 162.246 43.4233 158.007 46.5489 154.882C49.6745 151.756 53.9137 150 58.334 150ZM58.334 158.333C56.1238 158.333 54.0042 159.211 52.4414 160.774C50.8786 162.337 50.0006 164.457 50.0006 166.667C50.0006 168.877 50.8786 170.996 52.4414 172.559C54.0042 174.122 56.1238 175 58.334 175C60.5441 175 62.6637 174.122 64.2265 172.559C65.7893 170.996 66.6673 168.877 66.6673 166.667C66.6673 164.457 65.7893 162.337 64.2265 160.774C62.6637 159.211 60.5441 158.333 58.334 158.333ZM150.001 50H35.609L56.834 100H125.001C126.296 100.002 127.575 99.6999 128.733 99.1181C129.89 98.5363 130.896 97.6909 131.667 96.65L156.667 63.3167H156.676C157.6 62.078 158.161 60.6067 158.297 59.0672C158.434 57.5277 158.139 55.9807 157.446 54.5991C156.754 53.2175 155.691 52.0556 154.376 51.2435C153.061 50.4313 151.546 50.0008 150.001 50ZM125.001 108.333H57.2173L50.834 121.333L50.0006 125C50.0006 127.21 50.8786 129.33 52.4414 130.893C54.0042 132.455 56.1238 133.333 58.334 133.333H150.001V141.667H58.334C55.432 141.668 52.58 140.912 50.0601 139.473C47.5402 138.033 45.4397 135.961 43.9665 133.461C42.4933 130.961 41.6985 128.119 41.6606 125.217C41.6228 122.316 42.3432 119.454 43.7506 116.917L49.7506 104.633L19.484 33.3333H8.33398V25H25.0007L32.0756 41.6667H150.001C153.15 41.667 156.234 42.5594 158.897 44.2405C161.559 45.9216 163.691 48.3226 165.046 51.1654C166.4 54.0083 166.921 57.1767 166.549 60.3035C166.177 63.4304 164.926 66.3879 162.942 68.8333L138.659 101.217C137.124 103.415 135.08 105.21 132.702 106.449C130.324 107.688 127.682 108.335 125.001 108.333Z" fill="#333333"/>
<circle cx="165" cy="165" r="25" fill="#9D2F2F"/>
<path d="M169.359 165.575C169.359 167.808 168.999 169.466 168.278 170.55C167.563 171.634 166.468 172.176 164.991 172.176C163.562 172.176 162.478 171.616 161.739 170.497C161.001 169.378 160.632 167.737 160.632 165.575C160.632 163.308 160.989 161.638 161.704 160.565C162.425 159.487 163.521 158.948 164.991 158.948C166.427 158.948 167.514 159.511 168.252 160.636C168.99 161.761 169.359 163.407 169.359 165.575ZM162.724 165.575C162.724 167.327 162.902 168.578 163.26 169.328C163.623 170.078 164.2 170.453 164.991 170.453C165.782 170.453 166.359 170.072 166.723 169.311C167.092 168.549 167.276 167.304 167.276 165.575C167.276 163.853 167.092 162.607 166.723 161.84C166.359 161.066 165.782 160.68 164.991 160.68C164.2 160.68 163.623 161.058 163.26 161.813C162.902 162.569 162.724 163.823 162.724 165.575Z" fill="white"/>
</svg>
