<svg width="161" height="160" viewBox="0 0 161 160" fill="none" xmlns="http://www.w3.org/2000/svg">
<path d="M51.6929 0.00691818C38.1732 -0.218215 24.693 5.05464 14.8894 15.3535C-1.05319 31.8273 -3.44364 56.9175 8.57036 76.2535C8.59282 76.2772 8.61598 76.3002 8.6398 76.3224C20.9201 95.4051 44.6499 103.99 66.3448 96.6687C66.5821 96.6287 66.8079 96.5379 67.0066 96.4023C67.2054 96.2668 67.3725 96.0898 67.4964 95.8835C67.6203 95.6773 67.6981 95.4467 67.7244 95.2075C67.7507 94.9684 67.725 94.7263 67.6489 94.498C67.5728 94.2698 67.4482 94.0608 67.2836 93.8852C67.1191 93.7097 66.9185 93.5718 66.6956 93.4812C66.4727 93.3905 66.2329 93.3492 65.9925 93.3601C65.7522 93.3709 65.517 93.4336 65.3032 93.544C45.0596 100.376 22.8856 92.3375 11.4174 74.5169C0.188292 56.444 2.37059 33.0201 17.2504 17.6445C31.8672 2.28921 55.2949 -1.06621 73.5666 9.38083C73.5851 9.39194 73.6178 9.36972 73.6361 9.38083C92.1629 20.1427 101.15 41.8149 95.3015 62.2952C95.2183 62.5115 95.181 62.7428 95.1922 62.9743C95.2034 63.2058 95.2628 63.4325 95.3665 63.6397C95.4702 63.847 95.616 64.0303 95.7946 64.1781C95.9732 64.3258 96.1806 64.4347 96.4037 64.4977C96.6267 64.5608 96.8605 64.5765 97.09 64.5441C97.3195 64.5117 97.5397 64.4319 97.7366 64.3096C97.9334 64.1873 98.1026 64.0252 98.2334 63.8338C98.3641 63.6424 98.4535 63.4259 98.4958 63.198C104.769 41.2315 95.144 17.9581 75.3027 6.4643C75.2795 6.46382 75.2564 6.46382 75.2332 6.4643C67.8774 2.24561 59.8047 0.142007 51.6929 0.00691818H51.6929Z" fill="#9D2F2F"/>
<path d="M111.344 60.5599C83.9166 60.5599 61.625 82.8398 61.625 110.28C61.625 137.719 83.9166 160 111.344 160C138.771 160 160.994 137.719 160.994 110.28C160.994 82.8396 138.771 60.5599 111.344 60.5599ZM111.344 63.8933C136.971 63.8933 157.661 84.6378 157.661 110.28C157.661 135.921 136.971 156.667 111.344 156.667C85.7164 156.667 64.9581 135.921 64.9581 110.28C64.9581 84.6376 85.7164 63.8933 111.344 63.8933Z" fill="#9D2F2F"/>
<path d="M89.6733 87.0579C89.34 87.0698 89.0179 87.1815 88.7487 87.3785C88.4795 87.5755 88.2757 87.8487 88.1635 88.1629C88.0513 88.477 88.036 88.8177 88.1194 89.1407C88.2029 89.4636 88.3814 89.7541 88.6317 89.9745L109.672 111.015L89.3956 131.292C89.2387 131.447 89.114 131.631 89.0287 131.834C88.9433 132.037 88.899 132.255 88.8982 132.475C88.8974 132.695 88.9402 132.914 89.0241 133.117C89.108 133.321 89.2314 133.506 89.3872 133.662C89.5429 133.817 89.7279 133.941 89.9315 134.025C90.1352 134.108 90.3534 134.151 90.5736 134.151C90.7939 134.15 91.0118 134.105 91.2148 134.02C91.4178 133.935 91.6019 133.81 91.7565 133.653L112.033 113.376L131.615 132.889C131.77 133.046 131.954 133.171 132.157 133.256C132.36 133.341 132.578 133.386 132.798 133.387C133.019 133.387 133.237 133.345 133.44 133.261C133.644 133.177 133.829 133.053 133.985 132.898C134.141 132.742 134.264 132.557 134.348 132.353C134.432 132.15 134.475 131.931 134.474 131.711C134.473 131.491 134.429 131.273 134.343 131.07C134.258 130.867 134.133 130.683 133.976 130.528L114.394 111.015L134.74 90.6687C134.992 90.424 135.161 90.106 135.221 89.76C135.282 89.4139 135.231 89.0576 135.077 88.7419C134.923 88.4262 134.674 88.1673 134.364 88.002C134.054 87.8367 133.699 87.7736 133.351 87.8216C132.973 87.8892 132.63 88.0854 132.379 88.3772L112.103 108.654L90.9927 87.6134C90.8279 87.4286 90.6239 87.2828 90.3957 87.1867C90.1675 87.0906 89.9207 87.0466 89.6733 87.0579Z" fill="#9D2F2F"/>
<path d="M16.9051 24.1442C16.0325 24.1986 15.2881 25.0423 15.3427 25.9149C15.3972 26.7875 16.2408 27.5319 17.1134 27.4774H25.4462L34.6818 64.1425C34.8635 64.8463 35.5523 65.3849 36.279 65.3923H74.6795C75.372 65.3923 76.0459 64.9341 76.2767 64.2814C79.6127 54.7261 82.6632 45.3858 85.8595 35.9492C86.1621 34.9563 85.3003 33.7948 84.2623 33.7965H36.279C35.3985 33.7832 34.5887 34.5825 34.5887 35.4631C34.5887 36.3437 35.3985 37.1422 36.279 37.1297H81.9708L79.957 43.1017C67.5324 43.1017 55.077 43.1017 42.6675 43.1017C41.7949 43.1561 41.0505 43.9998 41.1051 44.8723C41.1596 45.7449 42.0032 46.4894 42.8758 46.4348H78.7765L76.6239 52.7541C67.2117 52.7541 57.7527 52.7541 48.3616 52.7541C47.489 52.8274 46.7612 53.687 46.8339 54.5596C46.9066 55.4321 47.7668 56.1598 48.6394 56.0871H75.5128L73.4991 62.0592H37.5289L28.2933 25.394C28.1116 24.6904 27.4229 24.1514 26.6962 24.1442C23.4411 24.1442 20.1436 24.1442 16.9051 24.1442Z" fill="#9D2F2F"/>
<path d="M40.2365 71.7398C40.0176 71.7626 39.8054 71.8282 39.6119 71.9331C39.4184 72.0379 39.2475 72.1798 39.1088 72.3507C38.9702 72.5216 38.8665 72.7181 38.8038 72.929C38.7411 73.14 38.7206 73.3612 38.7434 73.5801C38.7662 73.7989 38.8319 74.0112 38.9367 74.2046C39.0415 74.3981 39.1834 74.5692 39.3543 74.7079C39.5252 74.8465 39.7217 74.9501 39.9327 75.0128C40.1436 75.0754 40.3648 75.0959 40.5837 75.0731H50.1665C50.3869 75.0755 50.6055 75.0342 50.8098 74.9514C51.014 74.8687 51.1999 74.7463 51.3565 74.5913C51.5132 74.4363 51.6375 74.2518 51.7224 74.0484C51.8073 73.845 51.851 73.6268 51.851 73.4064C51.851 73.1861 51.8073 72.9679 51.7224 72.7645C51.6375 72.5611 51.5132 72.3767 51.3565 72.2217C51.1999 72.0667 51.014 71.9443 50.8098 71.8616C50.6055 71.7789 50.3869 71.7374 50.1665 71.7398H40.5837C40.4683 71.7277 40.3519 71.7277 40.2365 71.7398Z" fill="#9D2F2F"/>
<path d="M59.471 71.7397C59.2522 71.7579 59.039 71.8192 58.8438 71.9198C58.6486 72.0204 58.4751 72.1584 58.3332 72.326C58.1914 72.4937 58.0839 72.6877 58.017 72.8969C57.9501 73.1061 57.925 73.3264 57.9433 73.5452C57.9615 73.7641 58.0227 73.9773 58.1233 74.1725C58.2239 74.3678 58.362 74.5412 58.5296 74.6831C58.6973 74.8249 58.8912 74.9325 59.1004 74.9994C59.3096 75.0663 59.5299 75.0913 59.7488 75.073H69.401C69.6214 75.0754 69.84 75.0341 70.0443 74.9514C70.2486 74.8686 70.4344 74.7462 70.5911 74.5912C70.7477 74.4362 70.8721 74.2517 70.9569 74.0483C71.0418 73.8449 71.0855 73.6267 71.0855 73.4063C71.0855 73.186 71.0418 72.9678 70.9569 72.7644C70.8721 72.561 70.7477 72.3766 70.5911 72.2216C70.4344 72.0666 70.2486 71.9442 70.0443 71.8615C69.84 71.7788 69.6214 71.7373 69.401 71.7397H59.7488C59.6564 71.732 59.5635 71.732 59.471 71.7397Z" fill="#9D2F2F"/>
</svg>
