<svg width="20" height="20" viewBox="0 0 20 20" fill="none" xmlns="http://www.w3.org/2000/svg">
<path d="M3.33398 2.5C2.67094 2.5 2.03506 2.76339 1.56622 3.23223C1.09738 3.70107 0.833984 4.33696 0.833984 5V15.8333C0.833984 16.4964 1.09738 17.1323 1.56622 17.6011C2.03506 18.0699 2.67094 18.3333 3.33398 18.3333H14.1673C14.8304 18.3333 15.4662 18.0699 15.9351 17.6011C16.4039 17.1323 16.6673 16.4964 16.6673 15.8333V14.3583C16.9289 14.1244 17.1382 13.838 17.2818 13.5179C17.4254 13.1977 17.4999 12.8509 17.5007 12.5V8.33333C17.4999 7.98244 17.4254 7.63563 17.2818 7.31546C17.1382 6.99529 16.9289 6.70893 16.6673 6.475V5C16.6673 4.33696 16.4039 3.70107 15.9351 3.23223C15.4662 2.76339 14.8304 2.5 14.1673 2.5H3.33398ZM3.33398 3.33333H14.1673C14.6093 3.33333 15.0333 3.50893 15.3458 3.82149C15.6584 4.13405 15.834 4.55797 15.834 5V5.97833C15.5665 5.88302 15.2846 5.83398 15.0007 5.83333H10.0007C9.33761 5.83333 8.70172 6.09673 8.23288 6.56557C7.76404 7.03441 7.50065 7.67029 7.50065 8.33333V12.5C7.50065 13.163 7.76404 13.7989 8.23288 14.2678C8.70172 14.7366 9.33761 15 10.0007 15H15.0007C15.2846 14.9994 15.5665 14.9503 15.834 14.855V15.8333C15.834 16.2754 15.6584 16.6993 15.3458 17.0118C15.0333 17.3244 14.6093 17.5 14.1673 17.5H3.33398C2.89196 17.5 2.46803 17.3244 2.15547 17.0118C1.84291 16.6993 1.66732 16.2754 1.66732 15.8333V5C1.66732 4.55797 1.84291 4.13405 2.15547 3.82149C2.46803 3.50893 2.89196 3.33333 3.33398 3.33333ZM10.0007 6.66667H15.0007C15.4427 6.66667 15.8666 6.84226 16.1792 7.15482C16.4917 7.46738 16.6673 7.89131 16.6673 8.33333V12.5C16.6673 12.942 16.4917 13.366 16.1792 13.6785C15.8666 13.9911 15.4427 14.1667 15.0007 14.1667H10.0007C9.55862 14.1667 9.1347 13.9911 8.82214 13.6785C8.50958 13.366 8.33398 12.942 8.33398 12.5V8.33333C8.33398 7.89131 8.50958 7.46738 8.82214 7.15482C9.1347 6.84226 9.55862 6.66667 10.0007 6.66667ZM12.084 8.33333C11.5314 8.33333 11.0015 8.55283 10.6108 8.94353C10.2201 9.33423 10.0007 9.86413 10.0007 10.4167C10.0007 10.9692 10.2201 11.4991 10.6108 11.8898C11.0015 12.2805 11.5314 12.5 12.084 12.5C12.6365 12.5 13.1664 12.2805 13.5571 11.8898C13.9478 11.4991 14.1673 10.9692 14.1673 10.4167C14.1673 9.86413 13.9478 9.33423 13.5571 8.94353C13.1664 8.55283 12.6365 8.33333 12.084 8.33333ZM12.084 9.16667C12.2481 9.16667 12.4107 9.199 12.5623 9.26182C12.714 9.32464 12.8518 9.41671 12.9679 9.53278C13.0839 9.64886 13.176 9.78666 13.2388 9.93831C13.3017 10.09 13.334 10.2525 13.334 10.4167C13.334 10.5808 13.3017 10.7434 13.2388 10.895C13.176 11.0467 13.0839 11.1845 12.9679 11.3006C12.8518 11.4166 12.714 11.5087 12.5623 11.5715C12.4107 11.6343 12.2481 11.6667 12.084 11.6667C11.7525 11.6667 11.4345 11.535 11.2001 11.3006C10.9657 11.0661 10.834 10.7482 10.834 10.4167C10.834 10.0851 10.9657 9.7672 11.2001 9.53278C11.4345 9.29836 11.7525 9.16667 12.084 9.16667Z" fill="black"/>
</svg>
