<svg width="20" height="20" viewBox="0 0 20 20" fill="none" xmlns="http://www.w3.org/2000/svg">
<mask id="path-1-inside-1" fill="white">
<path d="M10.9563 0.349553C10.9727 0.183416 11.1209 0.0616116 11.2864 0.0830873C13.0307 0.309345 14.6864 0.992024 16.085 2.0645C17.5637 3.19835 18.6962 4.72279 19.3547 6.46589C20.0132 8.20899 20.1716 10.1014 19.812 11.9297C19.4525 13.7581 18.5892 15.4496 17.3196 16.8135C16.05 18.1774 14.4246 19.1594 12.6267 19.6489C10.8288 20.1383 8.9299 20.1157 7.14415 19.5835C5.35841 19.0514 3.75686 18.0309 2.52013 16.6371C1.35036 15.3188 0.550982 13.7162 0.200522 11.9925C0.167257 11.8289 0.278153 11.6725 0.442687 11.6442C0.60722 11.6159 0.763055 11.7264 0.796637 11.89C1.12779 13.5026 1.87735 15.0018 2.97235 16.2359C4.13431 17.5454 5.63903 18.5042 7.31681 19.0041C8.9946 19.5041 10.7787 19.5254 12.4679 19.0655C14.1571 18.6056 15.6843 17.683 16.8771 16.4015C18.0699 15.1201 18.881 13.5309 19.2188 11.8131C19.5567 10.0953 19.4078 8.31727 18.7891 6.67956C18.1704 5.04184 17.1064 3.60957 15.7172 2.54426C14.4079 1.54034 12.8589 0.899956 11.2268 0.685013C11.0612 0.663215 10.9398 0.51569 10.9563 0.349553Z"/>
</mask>
<path d="M10.9563 0.349553C10.9727 0.183416 11.1209 0.0616116 11.2864 0.0830873C13.0307 0.309345 14.6864 0.992024 16.085 2.0645C17.5637 3.19835 18.6962 4.72279 19.3547 6.46589C20.0132 8.20899 20.1716 10.1014 19.812 11.9297C19.4525 13.7581 18.5892 15.4496 17.3196 16.8135C16.05 18.1774 14.4246 19.1594 12.6267 19.6489C10.8288 20.1383 8.9299 20.1157 7.14415 19.5835C5.35841 19.0514 3.75686 18.0309 2.52013 16.6371C1.35036 15.3188 0.550982 13.7162 0.200522 11.9925C0.167257 11.8289 0.278153 11.6725 0.442687 11.6442C0.60722 11.6159 0.763055 11.7264 0.796637 11.89C1.12779 13.5026 1.87735 15.0018 2.97235 16.2359C4.13431 17.5454 5.63903 18.5042 7.31681 19.0041C8.9946 19.5041 10.7787 19.5254 12.4679 19.0655C14.1571 18.6056 15.6843 17.683 16.8771 16.4015C18.0699 15.1201 18.881 13.5309 19.2188 11.8131C19.5567 10.0953 19.4078 8.31727 18.7891 6.67956C18.1704 5.04184 17.1064 3.60957 15.7172 2.54426C14.4079 1.54034 12.8589 0.899956 11.2268 0.685013C11.0612 0.663215 10.9398 0.51569 10.9563 0.349553Z" stroke="white" stroke-width="2" stroke-linecap="round" mask="url(#path-1-inside-1)"/>
</svg>
