<svg enable-background="new 0 0 612 612" height="612" viewBox="0 0 612 612" width="612" xmlns="http://www.w3.org/2000/svg"><path d="m401.625 267.75h-57.375v-57.375c0-21.114-17.136-38.25-38.25-38.25s-38.25 17.117-38.25 38.25v57.375h-57.375c-21.114 0-38.25 17.117-38.25 38.25 0 21.114 17.136 38.25 38.25 38.25h57.375v57.375c0 21.114 17.136 38.25 38.25 38.25s38.25-17.117 38.25-38.25v-57.375h57.375c21.114 0 38.25-17.136 38.25-38.25s-17.136-38.25-38.25-38.25zm-95.625-267.75c-169.008 0-306 136.992-306 306s136.992 306 306 306 306-136.992 306-306-136.992-306-306-306zm0 554.625c-137.088 0-248.625-111.537-248.625-248.625s111.537-248.625 248.625-248.625 248.625 111.537 248.625 248.625-111.537 248.625-248.625 248.625z" fill="#fff"/></svg>