<svg enable-background="new -594 408 278 209" viewBox="-594 408 278 209" xmlns="http://www.w3.org/2000/svg"><path d="m-430.5 531h-38.4l5.8-5.8c2.4 1.4 5.1 2.2 8.1 2.2 8.6 0 15.5-6.7 15.5-15 0-3.1-1-5.9-2.6-8.3l10.3-10.3h1.2c1.9 0 3.5 1.5 3.5 3.4v30.5c.1 1.8-1.5 3.3-3.4 3.3zm0-30.5h-7v3.4h7zm-24.5 22.9c-1.8 0-3.6-.4-5.1-1.2l15.1-15.1c.9 1.6 1.4 3.4 1.4 5.3 0 6.1-5.1 11-11.4 11zm-24.6 11.3l46-46 2.7 2.7-46 46zm24.6-33.3c2.1 0 4 .5 5.7 1.5l-15.3 15.3c-1.1-1.7-1.7-3.7-1.7-5.8-.1-6.1 5-11 11.3-11zm0-4c-8.6 0-15.5 6.7-15.5 15 0 3.3 1.1 6.3 2.9 8.8l-9.8 9.8h-2.1c-1.9 0-3.5-1.5-3.5-3.4v-30.5c0-1.9 1.6-3.4 3.5-3.4h12.3c.9-3.4 1.8-6.8 5.3-6.8h14c3.5 0 4.4 3.4 5.3 6.8h2.6l-6.1 6.1c-2.7-1.5-5.7-2.4-8.9-2.4z" fill="#3c3c3c"/></svg>