<svg enable-background="new 0 0 49 49" height="512" viewBox="0 0 49 49" width="512" xmlns="http://www.w3.org/2000/svg"><path d="m39.914 0h-2.414-28-9v49h7 33 8v-40.414zm-4.414 2v14h-24v-14zm-26 45v-19h29v19zm37 0h-6v-21h-33v21h-5v-45h7v16h28v-16h1.586l7.414 7.414z" fill="#fff"/><path d="m13.5 33h7c .553 0 1-.447 1-1s-.447-1-1-1h-7c-.553 0-1 .447-1 1s .447 1 1 1z" fill="#fff"/><path d="m23.5 35h-10c-.553 0-1 .447-1 1s .447 1 1 1h10c .553 0 1-.447 1-1s-.447-1-1-1z" fill="#fff"/><path d="m25.79 35.29c-.181.189-.29.45-.29.71s.109.52.29.71c.189.18.439.29.71.29.26 0 .52-.11.71-.29.18-.19.29-.45.29-.71s-.11-.521-.29-.71c-.37-.37-1.05-.37-1.42 0z" fill="#fff"/><path d="m33.5 4h-6v10h6zm-2 8h-2v-6h2z" fill="#fff"/></svg>