<svg viewBox="0 0 30 30" xmlns="http://www.w3.org/2000/svg"><path d="m28.86 15a4.38 4.38 0 0 0-3.38-4.28v-.11a4.31 4.31 0 0 0  .66-2.29 4.42 4.42 0 0 0-4.41-4.41 4.31 4.31 0 0 0-2.29.66h-.11a4.39 4.39 0 0 0-8.55 0h-.11a4.39 4.39 0 0 0-6 6v .11a4.39 4.39 0 0 0 0 8.55v.11a4.31 4.31 0 0 0-.66 2.29 4.42 4.42 0 0 0  4.41 4.41 4.31 4.31 0 0 0  2.29-.66h.11a4.39 4.39 0 0 0 8.55 0h .11a4.31 4.31 0 0 0 2.29.66 4.42 4.42 0 0 0  4.41-4.41 4.31 4.31 0 0 0-.66-2.29v-.11a4.38 4.38 0 0 0 3.34-4.23zm-13.86 7.71a7.71 7.71 0 1 1 7.71-7.71 7.72 7.72 0 0 1-7.71 7.71z" fill="#5d5d62"/><circle cx="15" cy="15" fill="#5d5d62" r="4.25"/></svg>