<svg width="20" height="20" viewBox="0 0 20 20" fill="none" xmlns="http://www.w3.org/2000/svg">
<path d="M5.83333 1.66663H6.66667C6.88768 1.66663 7.09964 1.75442 7.25592 1.9107C7.4122 2.06698 7.5 2.27895 7.5 2.49996V3.33329H11.6667V2.49996C11.6667 2.27895 11.7545 2.06698 11.9107 1.9107C12.067 1.75442 12.279 1.66663 12.5 1.66663H13.3333C13.5543 1.66663 13.7663 1.75442 13.9226 1.9107C14.0789 2.06698 14.1667 2.27895 14.1667 2.49996V3.33329C14.8297 3.33329 15.4656 3.59668 15.9344 4.06553C16.4033 4.53437 16.6667 5.17025 16.6667 5.83329V15C16.6667 15.663 16.4033 16.2989 15.9344 16.7677C15.4656 17.2366 14.8297 17.5 14.1667 17.5H5C4.33696 17.5 3.70107 17.2366 3.23223 16.7677C2.76339 16.2989 2.5 15.663 2.5 15V5.83329C2.5 5.17025 2.76339 4.53437 3.23223 4.06553C3.70107 3.59668 4.33696 3.33329 5 3.33329V2.49996C5 2.27895 5.0878 2.06698 5.24408 1.9107C5.40036 1.75442 5.61232 1.66663 5.83333 1.66663ZM12.5 3.33329H13.3333V2.49996H12.5V3.33329ZM6.66667 3.33329V2.49996H5.83333V3.33329H6.66667ZM5 4.16663C4.55797 4.16663 4.13405 4.34222 3.82149 4.65478C3.50893 4.96734 3.33333 5.39127 3.33333 5.83329V6.66663H15.8333V5.83329C15.8333 5.39127 15.6577 4.96734 15.3452 4.65478C15.0326 4.34222 14.6087 4.16663 14.1667 4.16663H5ZM3.33333 15C3.33333 15.442 3.50893 15.8659 3.82149 16.1785C4.13405 16.491 4.55797 16.6666 5 16.6666H14.1667C14.6087 16.6666 15.0326 16.491 15.3452 16.1785C15.6577 15.8659 15.8333 15.442 15.8333 15V7.49996H3.33333V15ZM10 10.8333H14.1667V15H10V10.8333ZM10.8333 11.6666V14.1666H13.3333V11.6666H10.8333Z" fill="#9D2F2F"/>
</svg>
